<svg width="64" height="71" viewBox="0 0 64 71" fill="none" xmlns="http://www.w3.org/2000/svg">
<rect opacity="0.81" x="1" y="8" width="62" height="62" rx="31" stroke="#18C6CD" stroke-width="2"/>
<path d="M29.8906 36.8906C30.4844 36.2969 31.1875 36 32 36C32.8125 36 33.5156 36.2969 34.1094 36.8906C34.7031 37.4844 35 38.1875 35 39C35 39.8125 34.7031 40.5156 34.1094 41.1094C33.5156 41.7031 32.8125 42 32 42C31.1875 42 30.4844 41.7031 29.8906 41.1094C29.2969 40.5156 29 39.8125 29 39C29 38.1875 29.2969 37.4844 29.8906 36.8906ZM28.4375 42.5625C29.4375 43.5312 30.625 44.0156 32 44.0156C33.375 44.0156 34.5469 43.5312 35.5156 42.5625C36.5156 41.5625 37.0156 40.375 37.0156 39C37.0156 37.625 36.5156 36.4531 35.5156 35.4844C34.5469 34.4844 33.375 33.9844 32 33.9844C30.625 33.9844 29.4375 34.4844 28.4375 35.4844C27.4688 36.4531 26.9844 37.625 26.9844 39C26.9844 40.375 27.4688 41.5625 28.4375 42.5625ZM25.2969 33.5625C27.2969 32.1875 29.5312 31.5 32 31.5C34.4688 31.5 36.7031 32.1875 38.7031 33.5625C40.7031 34.9375 42.1406 36.75 43.0156 39C42.1406 41.25 40.7031 43.0625 38.7031 44.4375C36.7031 45.8125 34.4688 46.5 32 46.5C29.5312 46.5 27.2969 45.8125 25.2969 44.4375C23.2969 43.0625 21.8594 41.25 20.9844 39C21.8594 36.75 23.2969 34.9375 25.2969 33.5625Z" fill="#18C6CD"/>
<rect opacity="0.8" x="31" width="2" height="7" fill="#18C6CD"/>
<rect opacity="0.8" x="57.7695" y="10.3184" width="2" height="7" transform="rotate(45 57.7695 10.3184)" fill="#18C6CD"/>
<rect opacity="0.8" x="4.58984" y="12.0508" width="2" height="7" transform="rotate(-45 4.58984 12.0508)" fill="#18C6CD"/>
</svg>
