<svg width="153" height="34" viewBox="0 0 153 34" fill="none" xmlns="http://www.w3.org/2000/svg">
<g clip-path="url(#clip0)">
<path d="M30.36 6.51C27.25 2.55 22.43 0 17 0C11.11 0 5.93 2.99 2.88 7.54C6.18 6.74 11.24 6.51 18.66 6.51H30.36ZM32.23 9.48C31.97 9.5 31.7 9.51 31.39 9.51H14.69C3.53 9.51 2.79 10.04 2.79 13.01V14.45L27.83 16.04C30.65 16.25 32.64 16.56 34 17.16C34 17.11 34.01 17.06 34.01 17.01C34 14.29 33.35 11.75 32.23 9.48ZM3.64 27.49C6.75 31.45 11.57 34 17 34C23 34 28.26 30.89 31.28 26.2C27.65 27.2 21.97 27.49 13.85 27.49H3.64ZM31.22 21V19.03L8.06 17.64C4.32 17.36 1.71 17.08 0.03 16.41C0.02 16.61 0 16.8 0 17C0 19.69 0.64 22.23 1.76 24.49H17.82C30.39 24.49 31.22 23.99 31.22 21Z" fill="white"/>
<path d="M59.34 11.68C53.67 11.68 53.31 11.85 53.31 16.81V17.17C53.31 22.18 53.66 22.32 59.34 22.32H59.86C60.34 22.32 60.57 22.55 60.57 23.03V24.45H58.99C52.13 24.45 51 23.51 51 17.17V16.81C51 10.47 52.13 9.55 58.99 9.55H60.57V10.97C60.57 11.45 60.34 11.68 59.86 11.68H59.34V11.68Z" fill="white"/>
<path d="M66.37 11.68H62.28V10.26C62.28 9.78 62.51 9.55 62.99 9.55H72.92V10.95C72.92 11.43 72.67 11.68 72.19 11.68H68.66V23.74C68.66 24.22 68.41 24.45 67.93 24.45H66.37V11.68V11.68Z" fill="white"/>
<path d="M72.9 23.36C72.9 22.92 72.92 22.59 73.07 22.15L76.8 10.6C77.13 9.66 77.3 9.56 79.01 9.56C80.7 9.56 80.91 9.66 81.24 10.6L84.95 22.16C85.12 22.6 85.14 22.93 85.14 23.37V24.45H84.26C83.22 24.45 83.05 24.2 82.82 23.37L82.01 20.72H76.02L75.19 23.37C74.92 24.2 74.83 24.45 73.77 24.45H72.9V23.36ZM81.41 18.77L79.16 11.51H78.89L76.64 18.77H81.41Z" fill="white"/>
<path d="M97.37 24.45H95.76C95.28 24.45 95.05 24.22 95.05 23.74V17.9H89.54V24.45H87.95C87.47 24.45 87.24 24.22 87.24 23.74V9.55H88.85C89.31 9.55 89.54 9.78 89.54 10.26V15.77H95.05V9.55H96.64C97.12 9.55 97.37 9.78 97.37 10.26V24.45V24.45Z" fill="white"/>
<path d="M99.34 24.45V23.03C99.34 22.55 99.59 22.32 100.07 22.32H101.57L102.38 10.26C102.44 9.76 102.57 9.55 103.07 9.55H110.14C110.62 9.55 110.79 9.76 110.81 10.26L111.64 22.32H113.5V23.74C113.5 24.22 113.27 24.45 112.79 24.45H99.34V24.45ZM103.85 21.07C103.83 21.55 103.75 21.93 103.68 22.32H109.5C109.44 21.92 109.42 21.55 109.35 21.07L108.72 11.68H104.49L103.85 21.07Z" fill="white"/>
<path d="M115.33 23.36C115.33 22.92 115.35 22.59 115.5 22.15L119.23 10.59C119.56 9.65 119.73 9.55 121.44 9.55C123.13 9.55 123.34 9.65 123.67 10.59L127.38 22.15C127.55 22.59 127.57 22.92 127.57 23.36V24.44H126.69C125.65 24.44 125.48 24.19 125.25 23.36L124.44 20.71H118.45L117.62 23.36C117.35 24.19 117.27 24.44 116.2 24.44H115.32V23.36H115.33ZM123.84 18.77L121.59 11.51H121.32L119.07 18.77H123.84Z" fill="white"/>
<path d="M135.02 9.55C138.92 9.55 139.8 10.84 139.8 14.51C139.8 18.18 138.92 19.47 135.02 19.47H131.97V23.73C131.97 24.23 131.78 24.44 131.28 24.44H129.67V10.26C129.67 9.78 129.92 9.55 130.4 9.55H135.02ZM131.98 11.68V17.35H135.03C137.3 17.35 137.49 17.02 137.49 14.51C137.49 12.03 137.3 11.67 135.03 11.67H131.98V11.68Z" fill="white"/>
<path d="M145.57 11.68H141.48V10.26C141.48 9.78 141.71 9.55 142.19 9.55H152.12V10.95C152.12 11.43 151.87 11.68 151.39 11.68H147.86V23.74C147.86 24.22 147.61 24.45 147.13 24.45H145.57V11.68V11.68Z" fill="white"/>
</g>
<defs>
<clipPath id="clip0">
<rect width="152.12" height="34" fill="white"/>
</clipPath>
</defs>
</svg>
