<svg width="98" height="98" viewBox="0 0 98 98" fill="none" xmlns="http://www.w3.org/2000/svg">
<circle cx="49" cy="49" r="49" fill="#F46920"/>
<path d="M46.8906 28.8906C47.4844 28.2969 48.1875 28 49 28C49.8125 28 50.5156 28.2969 51.1094 28.8906C51.7031 29.4844 52 30.1875 52 31C52 31.8125 51.7031 32.5156 51.1094 33.1094C50.5156 33.7031 49.8125 34 49 34C48.1875 34 47.4844 33.7031 46.8906 33.1094C46.2969 32.5156 46 31.8125 46 31C46 30.1875 46.2969 29.4844 46.8906 28.8906ZM45.4375 34.5625C46.4375 35.5312 47.625 36.0156 49 36.0156C50.375 36.0156 51.5469 35.5312 52.5156 34.5625C53.5156 33.5625 54.0156 32.375 54.0156 31C54.0156 29.625 53.5156 28.4531 52.5156 27.4844C51.5469 26.4844 50.375 25.9844 49 25.9844C47.625 25.9844 46.4375 26.4844 45.4375 27.4844C44.4688 28.4531 43.9844 29.625 43.9844 31C43.9844 32.375 44.4688 33.5625 45.4375 34.5625ZM42.2969 25.5625C44.2969 24.1875 46.5312 23.5 49 23.5C51.4688 23.5 53.7031 24.1875 55.7031 25.5625C57.7031 26.9375 59.1406 28.75 60.0156 31C59.1406 33.25 57.7031 35.0625 55.7031 36.4375C53.7031 37.8125 51.4688 38.5 49 38.5C46.5312 38.5 44.2969 37.8125 42.2969 36.4375C40.2969 35.0625 38.8594 33.25 37.9844 31C38.8594 28.75 40.2969 26.9375 42.2969 25.5625Z" fill="white"/>
<path d="M19.2552 56.144C18.0872 56.144 17.1072 55.76 16.3152 54.992C15.5312 54.216 15.1392 53.22 15.1392 52.004C15.1392 50.788 15.5312 49.796 16.3152 49.028C17.1072 48.252 18.0872 47.864 19.2552 47.864C20.5352 47.864 21.5472 48.392 22.2912 49.448L21.4512 49.916C21.2192 49.572 20.9072 49.292 20.5152 49.076C20.1232 48.86 19.7032 48.752 19.2552 48.752C18.3752 48.752 17.6392 49.06 17.0472 49.676C16.4632 50.284 16.1712 51.06 16.1712 52.004C16.1712 52.948 16.4632 53.728 17.0472 54.344C17.6392 54.952 18.3752 55.256 19.2552 55.256C19.7032 55.256 20.1232 55.152 20.5152 54.944C20.9072 54.728 21.2192 54.444 21.4512 54.092L22.3032 54.56C21.5272 55.616 20.5112 56.144 19.2552 56.144ZM32.3686 56H31.3726V49.412L28.6486 56H28.2406L25.5286 49.412V56H24.5326V47.996H25.9606L28.4446 54.02L30.9406 47.996H32.3686V56ZM38.8437 56.144C37.6677 56.144 36.7117 55.752 35.9757 54.968C35.2397 54.184 34.8717 53.196 34.8717 52.004C34.8717 50.812 35.2397 49.824 35.9757 49.04C36.7117 48.256 37.6677 47.864 38.8437 47.864C40.0117 47.864 40.9637 48.256 41.6997 49.04C42.4437 49.824 42.8157 50.812 42.8157 52.004C42.8157 53.196 42.4437 54.184 41.6997 54.968C40.9637 55.752 40.0117 56.144 38.8437 56.144ZM38.8437 55.256C39.7237 55.256 40.4317 54.952 40.9677 54.344C41.5117 53.728 41.7837 52.948 41.7837 52.004C41.7837 51.052 41.5117 50.272 40.9677 49.664C40.4317 49.056 39.7237 48.752 38.8437 48.752C37.9557 48.752 37.2437 49.056 36.7077 49.664C36.1717 50.272 35.9037 51.052 35.9037 52.004C35.9037 52.948 36.1717 53.728 36.7077 54.344C37.2437 54.952 37.9557 55.256 38.8437 55.256ZM47.9793 56H46.9833V48.884H44.4513V47.996H50.5233V48.884H47.9793V56ZM53.8031 56H52.8071V47.996H56.0231C56.7991 47.996 57.4111 48.228 57.8591 48.692C58.3071 49.156 58.5311 49.728 58.5311 50.408C58.5311 51.088 58.3031 51.66 57.8471 52.124C57.3991 52.588 56.7911 52.82 56.0231 52.82H53.8031V56ZM55.9031 51.932C56.3751 51.932 56.7591 51.792 57.0551 51.512C57.3511 51.224 57.4991 50.856 57.4991 50.408C57.4991 49.96 57.3511 49.596 57.0551 49.316C56.7591 49.028 56.3751 48.884 55.9031 48.884H53.8031V51.932H55.9031ZM66.0541 56H60.8101V47.996H66.0541V48.884H61.8061V51.464H65.9701V52.352H61.8061V55.112H66.0541V56ZM71.5781 56H70.5821V48.884H68.0501V47.996L74.1221 47.996V48.884L71.5781 48.884V56ZM76.4058 47.996H77.4018V51.176H79.6218C80.3898 51.176 80.9978 51.408 81.4458 51.872C81.9018 52.336 82.1298 52.908 82.1298 53.588C82.1298 54.268 81.9058 54.84 81.4578 55.304C81.0098 55.768 80.3978 56 79.6218 56H76.4058V47.996ZM79.5018 52.064H77.4018V55.112H79.5018C79.9738 55.112 80.3578 54.972 80.6538 54.692C80.9498 54.404 81.0978 54.036 81.0978 53.588C81.0978 53.14 80.9498 52.776 80.6538 52.496C80.3578 52.208 79.9738 52.064 79.5018 52.064ZM31.3027 71H27.6547V62.996H31.2187C31.9067 62.996 32.4507 63.184 32.8507 63.56C33.2587 63.936 33.4627 64.428 33.4627 65.036C33.4627 65.516 33.3267 65.924 33.0547 66.26C32.7827 66.588 32.4507 66.792 32.0587 66.872C32.4827 66.936 32.8467 67.16 33.1507 67.544C33.4627 67.928 33.6187 68.36 33.6187 68.84C33.6187 69.488 33.4107 70.012 32.9947 70.412C32.5867 70.804 32.0227 71 31.3027 71ZM31.0507 66.464C31.4907 66.464 31.8307 66.344 32.0707 66.104C32.3107 65.864 32.4307 65.556 32.4307 65.18C32.4307 64.804 32.3067 64.496 32.0587 64.256C31.8187 64.008 31.4827 63.884 31.0507 63.884H28.6507V66.464H31.0507ZM31.0987 70.112C31.5627 70.112 31.9267 69.988 32.1907 69.74C32.4547 69.492 32.5867 69.156 32.5867 68.732C32.5867 68.34 32.4547 68.012 32.1907 67.748C31.9347 67.484 31.5707 67.352 31.0987 67.352H28.6507V70.112H31.0987ZM37.1215 71H36.1615V62.996H37.1575V69.248L41.7655 62.996H42.7855V71H41.7895V64.616L37.1215 71ZM45.0656 72.476V70.196C45.4176 70.172 45.6976 70.088 45.9056 69.944C46.1136 69.8 46.3016 69.496 46.4696 69.032C46.6456 68.568 46.7896 67.896 46.9016 67.016L47.3936 62.996H52.2896V70.112H53.0216V72.476H52.0256V71H46.0616V72.476H45.0656ZM47.8856 67.088C47.7016 68.632 47.2936 69.64 46.6616 70.112H51.2936V63.884H48.2816L47.8856 67.088ZM60.4935 71H55.2495V62.996H60.4935V63.884H56.2455V66.464H60.4095V67.352H56.2455V70.112H60.4935V71ZM66.6895 71.144C65.5135 71.144 64.5575 70.752 63.8215 69.968C63.0855 69.184 62.7175 68.196 62.7175 67.004C62.7175 65.812 63.0855 64.824 63.8215 64.04C64.5575 63.256 65.5135 62.864 66.6895 62.864C67.8575 62.864 68.8095 63.256 69.5455 64.04C70.2895 64.824 70.6615 65.812 70.6615 67.004C70.6615 68.196 70.2895 69.184 69.5455 69.968C68.8095 70.752 67.8575 71.144 66.6895 71.144ZM66.6895 70.256C67.5695 70.256 68.2775 69.952 68.8135 69.344C69.3575 68.728 69.6295 67.948 69.6295 67.004C69.6295 66.052 69.3575 65.272 68.8135 64.664C68.2775 64.056 67.5695 63.752 66.6895 63.752C65.8015 63.752 65.0895 64.056 64.5535 64.664C64.0175 65.272 63.7495 66.052 63.7495 67.004C63.7495 67.948 64.0175 68.728 64.5535 69.344C65.0895 69.952 65.8015 70.256 66.6895 70.256Z" fill="white"/>
</svg>
