<svg width="71" height="72" viewBox="0 0 71 72" fill="none" xmlns="http://www.w3.org/2000/svg">
<path fill-rule="evenodd" clip-rule="evenodd" d="M58.9712 60.5258C52.0562 67.1787 42.7007 71.5 33 71.5C13.4019 71.5 0 54.0412 0 35C0 15.67 15.67 0 35 0C54.2907 0 70.5 15.6312 70.5 35C70.5 44.7498 65.8872 53.8719 58.9712 60.5258ZM33 69.5C51.2254 69.5 68.5 53.2254 68.5 35C68.5 16.7746 53.2254 2 35 2C16.7746 2 2 16.7746 2 35C2 53.2254 14.7746 69.5 33 69.5Z" fill="#12B3BA"/>
<path fill-rule="evenodd" clip-rule="evenodd" d="M58.9712 60.5258C52.0562 67.1787 42.7007 71.5 33 71.5C13.4019 71.5 0 54.0412 0 35C0 15.67 15.67 0 35 0C54.2907 0 70.5 15.6312 70.5 35C70.5 44.7498 65.8872 53.8719 58.9712 60.5258ZM33 69.5C51.2254 69.5 68.5 53.2254 68.5 35C68.5 16.7746 53.2254 2 35 2C16.7746 2 2 16.7746 2 35C2 53.2254 14.7746 69.5 33 69.5Z" fill="#18C6CD"/>
</svg>
