<svg width="201" height="188" viewBox="0 0 201 188" fill="none" xmlns="http://www.w3.org/2000/svg">
<circle cx="100" cy="94" r="94" fill="#F46920"/>
<path d="M50.2851 62.5127L58.2006 57.9427L59.2306 59.7268L53.3416 63.1268L54.8016 65.6556L57.85 63.8956C59.0163 63.2222 60.1376 63.0444 61.214 63.3621C62.2953 63.6616 63.1292 64.3194 63.7159 65.3355C64.3092 66.3632 64.4653 67.4201 64.184 68.5063C63.9143 69.5858 63.1963 70.4622 62.03 71.1355L56.9551 74.0655L50.2851 62.5127ZM58.6029 65.8396L55.8316 67.4396L57.9516 71.1115L60.7229 69.5115C61.3003 69.1782 61.677 68.7374 61.8532 68.1892C62.0294 67.641 61.9574 67.0898 61.6374 66.5355C61.3174 65.9813 60.876 65.6434 60.3132 65.5219C59.7504 65.4003 59.1803 65.5062 58.6029 65.8396ZM71.3368 66.0394C70.0435 66.7861 68.761 66.9646 67.4891 66.575C66.2106 66.1738 65.2147 65.3555 64.5013 64.12C63.788 62.8845 63.5806 61.6186 63.8791 60.3223C64.1776 59.026 64.9735 58.0046 66.2668 57.2579C67.5716 56.5046 68.86 56.3227 70.1318 56.7123C71.4037 57.1019 72.3963 57.9145 73.1096 59.15C73.8296 60.3971 74.0404 61.6687 73.7418 62.965C73.4433 64.2613 72.6416 65.2861 71.3368 66.0394ZM70.4068 64.4286C71.1574 63.9952 71.5929 63.3897 71.7135 62.6118C71.839 61.8158 71.675 61.0252 71.2217 60.24C70.775 59.4663 70.179 58.9406 69.4335 58.6628C68.6929 58.3667 67.9474 58.4354 67.1968 58.8687C66.4578 59.2954 66.0256 59.9067 65.9001 60.7028C65.7795 61.4806 65.9426 62.2563 66.3893 63.03C66.8426 63.8152 67.4395 64.3558 68.1801 64.6518C68.9256 64.9297 69.6678 64.8552 70.4068 64.4286ZM76.6238 62.987L75.7638 61.4974C76.1217 61.2907 76.2713 60.8965 76.2125 60.3146C76.1652 59.726 75.8975 58.8491 75.4094 57.6836L73.5617 53.3233L80.0222 49.5933L84.8522 57.9591L83.0336 59.0091L79.1236 52.2368L76.0925 53.9868L77.3481 56.8415C78.0531 58.4359 78.3424 59.7238 78.2161 60.7051C78.0899 61.6863 77.5591 62.447 76.6238 62.987ZM91.1965 54.5734C89.9264 55.3067 88.6422 55.5092 87.3442 55.1809C86.051 54.8344 85.0278 54.0088 84.2744 52.704C83.5678 51.48 83.3695 50.2165 83.6796 48.9136C83.9945 47.5924 84.764 46.5785 85.988 45.8719C87.2235 45.1585 88.4632 45.0124 89.7071 45.4336C90.9625 45.8481 91.9736 46.7193 92.7402 48.0472L92.9902 48.4802L86.5297 52.2102C86.979 52.8284 87.567 53.2202 88.2938 53.3856C89.0205 53.5511 89.765 53.4138 90.5271 52.9738C90.9543 52.7271 91.3349 52.3996 91.6688 51.9913C92.0142 51.5763 92.248 51.1412 92.37 50.6858L93.8913 51.4009C93.5151 52.6959 92.6168 53.7534 91.1965 54.5734ZM90.4836 48.2185C90.1271 47.6544 89.6168 47.2639 88.9527 47.0469C88.3001 46.8233 87.5985 46.9281 86.848 47.3614C86.1321 47.7748 85.702 48.3233 85.5579 49.0069C85.4071 49.6791 85.4786 50.3229 85.7724 50.9385L90.4836 48.2185ZM100.838 49.007C99.5677 49.7403 98.2835 49.9428 96.9855 49.6145C95.6923 49.268 94.6691 48.4424 93.9157 47.1376C93.2091 45.9136 93.0108 44.6501 93.3209 43.3472C93.6358 42.026 94.4053 41.0121 95.6293 40.3055C96.8648 39.5921 98.1045 39.446 99.3484 39.8672C100.604 40.2817 101.615 41.1529 102.382 42.4808L102.632 42.9138L96.171 46.6438C96.6203 47.262 97.2083 47.6538 97.9351 47.8192C98.6618 47.9847 99.4063 47.8474 100.168 47.4074C100.596 47.1607 100.976 46.8332 101.31 46.4249C101.656 46.0099 101.889 45.5748 102.011 45.1194L103.533 45.8345C103.156 47.1295 102.258 48.187 100.838 49.007ZM100.125 42.6521C99.7684 42.088 99.2581 41.6975 98.594 41.4805C97.9414 41.2569 97.2398 41.3617 96.4893 41.795C95.7734 42.2084 95.3433 42.7569 95.1992 43.4405C95.0484 44.1127 95.1199 44.7565 95.4137 45.3721L100.125 42.6521ZM58.2405 128.749L53.3769 131.557L41.0169 110.149L39.1978 117.462L34.6671 116.143L37.9924 103.47L42.2325 101.022L58.2405 128.749ZM78.5466 116.028C77.5579 117.707 76.1351 119.083 74.2783 120.155C72.4216 121.227 70.5188 121.771 68.57 121.788C66.6213 121.804 64.8173 121.368 63.1582 120.478C61.4991 119.588 59.9679 118.44 58.5645 117.033C57.1611 115.627 55.9394 114.023 54.8994 112.221C53.8594 110.42 53.0811 108.56 52.5645 106.641C52.0479 104.722 51.8271 102.836 51.9022 100.982C51.9613 99.1005 52.4853 97.32 53.474 95.6406C54.4628 93.9612 55.8856 92.5855 57.7423 91.5135C59.5991 90.4415 61.5019 89.8972 63.4506 89.8806C65.3994 89.864 67.2034 90.3005 68.8625 91.1901C70.5056 92.0521 72.0288 93.1864 73.4322 94.5932C74.8356 95.9999 76.0573 97.604 77.0973 99.4053C78.1373 101.207 78.9156 103.067 79.4322 104.985C79.9488 106.904 80.1776 108.804 80.1185 110.686C80.0594 112.568 79.5354 114.348 78.5466 116.028ZM65.4946 115.693C67.5802 117.001 69.6762 117.048 71.7823 115.832C73.8885 114.616 74.8964 112.777 74.8061 110.317C74.7158 107.856 73.8306 105.171 72.1506 102.261C71.0786 100.405 69.9326 98.8676 68.7126 97.6506C67.5203 96.4175 66.1672 95.6099 64.6533 95.2276C63.1511 94.8017 61.6794 95.0047 60.2383 95.8367C58.7973 96.6687 57.8718 97.8497 57.4618 99.3796C57.0636 100.866 57.0865 102.442 57.5305 104.107C58.0022 105.756 58.7741 107.509 59.8461 109.365C61.5261 112.275 63.4089 114.384 65.4946 115.693ZM104.162 101.239C103.173 102.918 101.751 104.294 99.8937 105.366C98.037 106.438 96.1342 106.982 94.1854 106.999C92.2367 107.015 90.4327 106.579 88.7736 105.689C87.1145 104.799 85.5833 103.651 84.1799 102.244C82.7765 100.838 81.5548 99.2336 80.5148 97.4323C79.4748 95.6309 78.6965 93.7709 78.1799 91.8521C77.6633 89.9333 77.4425 88.047 77.5176 86.1931C77.5767 84.3114 78.1007 82.5309 79.0894 80.8515C80.0782 79.1721 81.501 77.7964 83.3577 76.7244C85.2145 75.6524 87.1173 75.1081 89.0661 75.0915C91.0148 75.0749 92.8188 75.5114 94.4779 76.4011C96.121 77.263 97.6442 78.3973 99.0476 79.8041C100.451 81.2109 101.673 82.8149 102.713 84.6163C103.753 86.4176 104.531 88.2776 105.048 90.1964C105.564 92.1152 105.793 94.0154 105.734 95.897C105.675 97.7787 105.151 99.5592 104.162 101.239ZM91.11 100.904C93.1957 102.212 95.2916 102.258 97.3977 101.042C99.5039 99.8264 100.512 97.9882 100.421 95.5277C100.331 93.0673 99.446 90.3821 97.766 87.4723C96.694 85.6155 95.548 84.0786 94.328 82.8615C93.1358 81.6285 91.7826 80.8208 90.2687 80.4386C88.7665 80.0126 87.2948 80.2156 85.8537 81.0476C84.4127 81.8796 83.4872 83.0606 83.0772 84.5906C82.679 86.0768 82.7019 87.6525 83.1459 89.3175C83.6176 90.9666 84.3895 92.7195 85.4615 94.5763C87.1415 97.4861 89.0243 99.5953 91.11 100.904ZM129.777 86.4495C128.789 88.1289 127.366 89.5046 125.509 90.5766C123.652 91.6486 121.75 92.1929 119.801 92.2095C117.852 92.2261 116.048 91.7896 114.389 90.9C112.73 90.0103 111.199 88.8621 109.795 87.4553C108.392 86.0486 107.17 84.4445 106.13 82.6432C105.09 80.8419 104.312 78.9818 103.795 77.063C103.279 75.1443 103.058 73.2579 103.133 71.404C103.192 69.5224 103.716 67.7418 104.705 66.0625C105.694 64.3831 107.116 63.0074 108.973 61.9354C110.83 60.8634 112.733 60.3191 114.681 60.3025C116.63 60.2858 118.434 60.7224 120.093 61.612C121.736 62.4739 123.26 63.6083 124.663 65.015C126.066 66.4218 127.288 68.0259 128.328 69.8272C129.368 71.6285 130.146 73.4886 130.663 75.4073C131.18 77.3261 131.408 79.2263 131.349 81.108C131.29 82.9896 130.766 84.7701 129.777 86.4495ZM116.725 86.1147C118.811 87.4231 120.907 87.4694 123.013 86.2534C125.119 85.0374 126.127 83.1991 126.037 80.7387C125.947 78.2782 125.061 75.593 123.381 72.6832C122.309 70.8264 121.163 69.2895 119.943 68.0725C118.751 66.8394 117.398 66.0317 115.884 65.6495C114.382 65.2236 112.91 65.4266 111.469 66.2586C110.028 67.0906 109.103 68.2716 108.693 69.8015C108.294 71.2877 108.317 72.8634 108.761 74.5285C109.233 76.1775 110.005 77.9304 111.077 79.7872C112.757 82.697 114.64 84.8062 116.725 86.1147ZM155.393 71.6604C154.404 73.3398 152.981 74.7155 151.125 75.7875C149.268 76.8595 147.365 77.4038 145.416 77.4204C143.467 77.4371 141.664 77.0005 140.004 76.1109C138.345 75.2213 136.814 74.0731 135.411 72.6663C134.007 71.2595 132.786 69.6555 131.746 67.8541C130.706 66.0528 129.927 64.1927 129.411 62.274C128.894 60.3552 128.673 58.4689 128.748 56.6149C128.808 54.7333 129.331 52.9528 130.32 51.2734C131.309 49.594 132.732 48.2183 134.589 47.1463C136.445 46.0743 138.348 45.53 140.297 45.5134C142.246 45.4968 144.05 45.9333 145.709 46.8229C147.352 47.6849 148.875 48.8192 150.278 50.226C151.682 51.6327 152.904 53.2368 153.944 55.0381C154.984 56.8395 155.762 58.6995 156.278 60.6183C156.795 62.5371 157.024 64.4373 156.965 66.3189C156.906 68.2005 156.382 69.9811 155.393 71.6604ZM142.341 71.3256C144.426 72.6341 146.522 72.6803 148.629 71.4643C150.735 70.2483 151.743 68.4101 151.652 65.9496C151.562 63.4891 150.677 60.804 148.997 57.8941C147.925 56.0374 146.779 54.5005 145.559 53.2834C144.367 52.0503 143.013 51.2427 141.5 50.8604C139.997 50.4345 138.526 50.6375 137.085 51.4695C135.643 52.3015 134.718 53.4825 134.308 55.0124C133.91 56.4987 133.933 58.0743 134.377 59.7394C134.848 61.3885 135.62 63.1414 136.692 64.9981C138.372 67.908 140.255 70.0171 142.341 71.3256ZM77.4631 145.641C76.193 146.374 74.9171 146.564 73.6354 146.211C72.3471 145.846 71.333 145.023 70.593 143.741C69.8597 142.471 69.6605 141.193 69.9954 139.906C70.3237 138.608 71.123 137.593 72.3931 136.859C73.7903 136.053 75.1451 135.932 76.4574 136.499L75.9023 138.297C75.0604 137.906 74.2296 137.947 73.4097 138.42C72.6476 138.86 72.1856 139.473 72.0238 140.26C71.8552 141.034 72.0076 141.832 72.4809 142.651C72.9543 143.471 73.5719 144.008 74.3338 144.261C75.0956 144.514 75.8576 144.42 76.6197 143.98C77.4165 143.52 77.8673 142.821 77.9723 141.883L79.8074 142.301C79.6417 143.721 78.8603 144.834 77.4631 145.641ZM77.0177 134.466L78.8363 133.416L80.1363 135.668C80.4963 136.292 80.9055 136.64 81.364 136.714C81.834 136.782 82.4154 136.616 83.1082 136.216C83.8587 135.782 84.4107 135.325 84.7642 134.844L82.6642 131.206L84.4828 130.156L89.3128 138.522L87.4942 139.572L85.6142 136.316C85.1871 136.963 84.4712 137.576 83.4666 138.156C82.3235 138.816 81.3712 139.074 80.6098 138.928C79.8484 138.783 79.211 138.265 78.6977 137.376L77.0177 134.466ZM98.5932 133.164L96.7746 134.214L96.2546 133.314C96.0346 134.426 95.3473 135.315 94.1926 135.982C93.4305 136.422 92.615 136.57 91.7461 136.425C90.8705 136.268 90.1827 135.757 89.6827 134.891C89.1694 134.002 89.0681 133.159 89.3788 132.364C89.701 131.562 90.2489 130.938 91.0226 130.491C92.2119 129.805 93.3192 129.643 94.3446 130.005L93.6246 128.758C93.3446 128.273 92.9456 127.996 92.4276 127.925C91.9097 127.855 91.3563 127.989 90.7674 128.329C89.832 128.869 89.2098 129.698 88.9005 130.816L87.4257 129.982C87.8526 128.534 88.7646 127.407 90.1618 126.601C91.1895 126.007 92.1666 125.766 93.0933 125.878C94.0199 125.99 94.7866 126.571 95.3932 127.622L98.5932 133.164ZM94.1827 134.325C95.0949 133.798 95.5922 133.126 95.6746 132.309L94.9446 131.045C94.1955 130.707 93.3649 130.802 92.4527 131.329C91.9331 131.629 91.5859 132.014 91.411 132.484C91.2361 132.955 91.2787 133.415 91.5387 133.865C91.7987 134.316 92.1761 134.583 92.671 134.667C93.1592 134.739 93.6631 134.625 94.1827 134.325ZM104.882 129.811C103.611 130.544 102.336 130.734 101.054 130.381C99.7656 130.016 98.7515 129.193 98.0115 127.911C97.2782 126.641 97.079 125.363 97.4139 124.076C97.7422 122.778 98.5415 121.763 99.8116 121.029C101.209 120.223 102.564 120.102 103.876 120.669L103.321 122.467C102.479 122.076 101.648 122.117 100.828 122.59C100.066 123.03 99.6041 123.643 99.4423 124.429C99.2737 125.204 99.4261 126.001 99.8994 126.821C100.373 127.641 100.99 128.178 101.752 128.43C102.514 128.683 103.276 128.59 104.038 128.15C104.835 127.69 105.286 126.991 105.391 126.053L107.226 126.471C107.06 127.891 106.279 129.004 104.882 129.811ZM112.903 124.902L111.085 125.952L107.175 119.18L104.785 120.56L103.865 118.966L110.481 115.146L111.401 116.74L108.993 118.13L112.903 124.902ZM115.276 123.81L114.416 122.32C114.774 122.113 114.923 121.719 114.865 121.137C114.817 120.549 114.55 119.672 114.062 118.506L112.214 114.146L118.674 110.416L123.504 118.782L121.686 119.832L117.776 113.059L114.745 114.809L116 117.664C116.705 119.259 116.995 120.546 116.868 121.528C116.742 122.509 116.211 123.27 115.276 123.81ZM127.616 116.408L125.866 117.418L121.036 109.052L122.855 108.002L126.105 113.631L126.7 105.782L128.519 104.732L133.349 113.098L131.53 114.148L128.19 108.363L127.616 116.408ZM140.837 108.775L135.711 111.735L130.881 103.369L135.886 100.479C136.66 100.032 137.383 99.8841 138.055 100.035C138.727 100.186 139.243 100.573 139.603 101.196C139.883 101.681 139.987 102.168 139.915 102.656C139.842 103.144 139.638 103.563 139.3 103.912C139.81 103.756 140.329 103.787 140.856 104.006C141.376 104.214 141.776 104.561 142.056 105.046C142.443 105.715 142.534 106.394 142.331 107.081C142.132 107.75 141.634 108.315 140.837 108.775ZM139.536 107.401C139.86 107.214 140.067 106.987 140.158 106.719C140.243 106.439 140.202 106.154 140.036 105.866C139.882 105.6 139.66 105.428 139.368 105.35C139.077 105.272 138.77 105.326 138.446 105.513L135.519 107.203L136.609 109.091L139.536 107.401ZM137.474 103.95C137.763 103.783 137.945 103.578 138.02 103.334C138.1 103.073 138.07 102.821 137.93 102.578C137.776 102.313 137.57 102.155 137.31 102.105C137.055 102.036 136.783 102.086 136.494 102.252L133.619 103.912L134.599 105.61L137.474 103.95ZM140.792 97.646L142.611 96.596L144.361 99.6271L147.323 97.9171C148.212 97.4038 149.04 97.2645 149.807 97.4992C150.585 97.7273 151.194 98.2224 151.634 98.9845C152.068 99.7351 152.186 100.513 151.989 101.32C151.798 102.108 151.269 102.752 150.403 103.252L145.622 106.012L140.792 97.646ZM148.018 99.6406L145.281 101.221L146.521 103.368L149.258 101.788C149.616 101.582 149.836 101.324 149.919 101.014C150.014 100.698 149.968 100.378 149.781 100.054C149.594 99.7312 149.34 99.5314 149.019 99.4551C148.71 99.3721 148.376 99.434 148.018 99.6406ZM156.257 99.8719L154.439 100.922L149.609 92.556L151.427 91.506L156.257 99.8719ZM165.939 94.2819L163.896 95.4619L159.951 93.6288L159.548 97.9719L157.522 99.1419L158.107 93.0764L152.865 90.676L154.909 89.496L158.541 91.1866L158.875 87.206L160.919 86.026L160.376 91.7664L165.939 94.2819ZM96.7873 157.301L95.0379 158.311L90.2079 149.945L92.0266 148.895L95.2766 154.524L95.8717 146.675L97.6904 145.625L102.52 153.991L100.702 155.041L97.3617 149.256L96.7873 157.301ZM108.813 150.635C107.543 151.368 106.267 151.559 104.985 151.205C103.697 150.841 102.683 150.017 101.943 148.736C101.209 147.466 101.01 146.187 101.345 144.901C101.673 143.603 102.473 142.587 103.743 141.854C105.14 141.047 106.495 140.927 107.807 141.493L107.252 143.292C106.41 142.9 105.579 142.941 104.759 143.414C103.997 143.854 103.535 144.468 103.373 145.254C103.205 146.029 103.357 146.826 103.83 147.646C104.304 148.466 104.921 149.002 105.683 149.255C106.445 149.508 107.207 149.414 107.969 148.974C108.766 148.514 109.217 147.815 109.322 146.877L111.157 147.296C110.991 148.715 110.21 149.828 108.813 150.635ZM116.835 145.727L115.016 146.777L111.106 140.004L108.716 141.384L107.796 139.791L114.412 135.971L115.332 137.564L112.925 138.954L116.835 145.727ZM124.627 141.505C123.334 142.251 122.051 142.43 120.779 142.04C119.501 141.639 118.505 140.821 117.791 139.585C117.078 138.35 116.871 137.084 117.169 135.788C117.468 134.491 118.264 133.47 119.557 132.723C120.862 131.97 122.15 131.788 123.422 132.178C124.694 132.567 125.686 133.38 126.4 134.615C127.12 135.862 127.331 137.134 127.032 138.43C126.733 139.727 125.932 140.751 124.627 141.505ZM123.697 139.894C124.448 139.461 124.883 138.855 125.004 138.077C125.129 137.281 124.965 136.491 124.512 135.705C124.065 134.932 123.469 134.406 122.724 134.128C121.983 133.832 121.238 133.901 120.487 134.334C119.748 134.761 119.316 135.372 119.19 136.168C119.07 136.946 119.233 137.722 119.679 138.495C120.133 139.281 120.73 139.821 121.47 140.117C122.216 140.395 122.958 140.321 123.697 139.894ZM135.283 135.352C134.175 135.992 133.017 136.053 131.809 135.534L134.319 139.881L132.5 140.931L125.83 129.379L127.649 128.329L128.309 129.472C128.458 128.184 129.093 127.217 130.213 126.571C131.31 125.937 132.426 125.817 133.561 126.209C134.707 126.594 135.67 127.462 136.45 128.813C137.23 130.164 137.503 131.438 137.271 132.635C137.043 133.813 136.38 134.719 135.283 135.352ZM133.816 134.052C134.532 133.638 134.954 133.048 135.081 132.282C135.208 131.516 135.035 130.723 134.562 129.903C134.089 129.083 133.492 128.542 132.771 128.281C132.044 128.008 131.322 128.078 130.606 128.492C130.191 128.732 129.844 129.078 129.567 129.531C129.289 129.983 129.136 130.426 129.109 130.857L131.019 134.166C131.406 134.357 131.866 134.446 132.397 134.432C132.927 134.418 133.401 134.292 133.816 134.052ZM142.423 130.953L140.673 131.963L135.843 123.597L137.662 122.547L140.912 128.177L141.507 120.327L143.326 119.277L148.156 127.643L146.337 128.693L142.997 122.908L142.423 130.953ZM152.267 125.27L150.518 126.28L145.688 117.914L147.506 116.864L150.756 122.493L151.351 114.644L153.17 113.594L158 121.96L156.181 123.01L152.841 117.225L152.267 125.27ZM151.07 111.596C150.906 113.046 150.189 114.137 148.919 114.87C147.66 115.597 146.351 115.676 144.99 115.106L145.422 113.933C146.416 114.376 147.375 114.33 148.299 113.797C149.223 113.263 149.736 112.459 149.839 111.383L151.07 111.596Z" fill="white"/>
</svg>
