<svg width="71" height="72" viewBox="0 0 71 72" fill="none" xmlns="http://www.w3.org/2000/svg">
<path fill-rule="evenodd" clip-rule="evenodd" d="M11.5288 60.5258C4.61284 53.8719 0 44.7498 0 35C0 15.6312 16.2093 0 35.5 0C54.83 0 70.5 15.67 70.5 35C70.5 54.0412 57.0981 71.5 37.5 71.5C27.7993 71.5 18.4438 67.1787 11.5288 60.5258ZM37.5 69.5C19.2746 69.5 2 53.2254 2 35C2 16.7746 17.2746 2 35.5 2C53.7254 2 68.5 16.7746 68.5 35C68.5 53.2254 55.7254 69.5 37.5 69.5Z" fill="#12B3BA"/>
<path fill-rule="evenodd" clip-rule="evenodd" d="M11.5288 60.5258C4.61284 53.8719 0 44.7498 0 35C0 15.6312 16.2093 0 35.5 0C54.83 0 70.5 15.67 70.5 35C70.5 54.0412 57.0981 71.5 37.5 71.5C27.7993 71.5 18.4438 67.1787 11.5288 60.5258ZM37.5 69.5C19.2746 69.5 2 53.2254 2 35C2 16.7746 17.2746 2 35.5 2C53.7254 2 68.5 16.7746 68.5 35C68.5 53.2254 55.7254 69.5 37.5 69.5Z" fill="#18C6CD"/>
</svg>
