<svg width="244" height="133" viewBox="0 0 244 133" fill="none" xmlns="http://www.w3.org/2000/svg">
<path d="M177 128C177 160.169 169.643 189.244 157.798 210.241C145.936 231.268 129.705 244 112 244C94.2949 244 78.0637 231.268 66.2019 210.241C54.3575 189.244 47 160.169 47 128C47 95.8315 54.3575 66.7573 66.2019 45.7603C78.0637 24.7326 94.2949 12.0005 112 12.0005C129.705 12.0005 145.936 24.7326 157.798 45.7603C169.643 66.7573 177 95.8315 177 128Z" stroke="#12B3BA" stroke-width="2"/>
<path d="M177 128C177 160.169 169.643 189.244 157.798 210.241C145.936 231.268 129.705 244 112 244C94.2949 244 78.0637 231.268 66.2019 210.241C54.3575 189.244 47 160.169 47 128C47 95.8315 54.3575 66.7573 66.2019 45.7603C78.0637 24.7326 94.2949 12.0005 112 12.0005C129.705 12.0005 145.936 24.7326 157.798 45.7603C169.643 66.7573 177 95.8315 177 128Z" stroke="#18C6CD" stroke-width="2"/>
<path d="M163.815 90.6162C184.546 115.246 198.497 141.533 204.326 164.09C210.174 186.725 207.771 205.24 196.391 214.818C185.011 224.397 166.358 223.605 145.053 213.98C123.822 204.389 100.3 186.156 79.5694 161.527C58.8385 136.897 44.8865 110.61 39.0582 88.0528C33.2098 65.4179 35.6126 46.9033 46.9926 37.3246C54.3482 31.1332 64.7255 29.2677 76.9499 31.3386C89.1725 33.4092 103.128 39.4025 117.453 48.7611C133.11 58.9899 149.162 73.2084 163.815 90.6162Z" stroke="#12B3BA" stroke-width="2"/>
<path d="M163.815 90.6162C184.546 115.246 198.497 141.533 204.326 164.09C210.174 186.725 207.771 205.24 196.391 214.818C185.011 224.397 166.358 223.605 145.053 213.98C123.822 204.389 100.3 186.156 79.5694 161.527C58.8385 136.897 44.8865 110.61 39.0582 88.0528C33.2098 65.4179 35.6126 46.9033 46.9926 37.3246C54.3482 31.1332 64.7255 29.2677 76.9499 31.3386C89.1725 33.4092 103.128 39.4025 117.453 48.7611C133.11 58.9899 149.162 73.2084 163.815 90.6162Z" stroke="#18C6CD" stroke-width="2"/>
<path d="M102.443 79.4931C133.121 68.3453 162.527 62.8746 185.251 63.0141C196.617 63.0839 206.256 64.5571 213.532 67.3844C220.811 70.2127 225.608 74.3447 227.543 79.6706C229.479 84.9964 228.453 91.2443 224.688 98.0855C220.925 104.924 214.481 112.242 205.811 119.592C188.477 134.288 162.419 148.972 131.741 160.12C101.063 171.268 71.6568 176.739 48.9326 176.599C37.5664 176.529 27.9277 175.056 20.6516 172.229C13.3731 169.401 8.57586 165.269 6.64053 159.943C4.7052 154.617 5.73056 148.369 9.49536 141.528C13.2589 134.689 19.7032 127.371 28.373 120.021C45.7064 105.325 71.7646 90.641 102.443 79.4931Z" stroke="#12B3BA" stroke-width="2"/>
<path d="M102.443 79.4931C133.121 68.3453 162.527 62.8746 185.251 63.0141C196.617 63.0839 206.256 64.5571 213.532 67.3844C220.811 70.2127 225.608 74.3447 227.543 79.6706C229.479 84.9964 228.453 91.2443 224.688 98.0855C220.925 104.924 214.481 112.242 205.811 119.592C188.477 134.288 162.419 148.972 131.741 160.12C101.063 171.268 71.6568 176.739 48.9326 176.599C37.5664 176.529 27.9277 175.056 20.6516 172.229C13.3731 169.401 8.57586 165.269 6.64053 159.943C4.7052 154.617 5.73056 148.369 9.49536 141.528C13.2589 134.689 19.7032 127.371 28.373 120.021C45.7064 105.325 71.7646 90.641 102.443 79.4931Z" stroke="#18C6CD" stroke-width="2"/>
</svg>
