<svg width="102" height="85" viewBox="0 0 102 85" fill="none" xmlns="http://www.w3.org/2000/svg">
<path d="M54.9119 0.975952H57.2159V49H0.335938V0.975952H2.63994V46.84H27.6239V0.975952H29.9279V46.84H54.9119V0.975952Z" fill="white"/>
<path d="M71.315 0.975952H99.971V3.13595H73.619V21.784H87.947C92.219 21.784 95.627 23.104 98.171 25.744C100.715 28.384 101.987 31.6 101.987 35.392C101.987 39.232 100.715 42.472 98.171 45.112C95.675 47.704 92.267 49 87.947 49H71.315V0.975952ZM87.875 23.944H73.619V46.84H87.875C91.379 46.84 94.187 45.784 96.299 43.672C98.411 41.512 99.467 38.752 99.467 35.392C99.467 32.032 98.411 29.296 96.299 27.184C94.187 25.024 91.379 23.944 87.875 23.944Z" fill="white"/>
<path d="M30.9359 85H28.1519V56.728L16.4879 85H15.4319L3.71994 56.728V85H0.983937V52.984H5.06394L15.9599 79.384L26.8079 52.984H30.9359V85Z" fill="white"/>
<path d="M65.6898 85H62.9058V69.784H42.6018V85H39.8658V52.984H42.6018V67.288H62.9058V52.984H65.6898V85Z" fill="white"/>
<path d="M97.5678 85H94.0638L80.8638 69.928L77.3118 73.816V85H74.5758V52.984H77.3118V70.504L92.7678 52.984H96.2718L82.6398 68.248L97.5678 85Z" fill="white"/>
</svg>
