<svg width="64" height="71" viewBox="0 0 64 71" fill="none" xmlns="http://www.w3.org/2000/svg">
<path opacity="0.8" fill-rule="evenodd" clip-rule="evenodd" d="M33 0H31V7H32C23.7658 7 16.2579 10.1101 10.5871 15.2196L6.00406 10.6366L4.58984 12.0508L9.14328 16.6042C3.48732 22.3759 0 30.2807 0 39C0 56.6731 14.3269 71 32 71C49.6731 71 64 56.6731 64 39C64 30.1422 60.401 22.1249 54.5855 16.3308L59.1837 11.7326L57.7695 10.3184L53.1248 14.9631C47.4889 10.0062 40.0955 7 32 7H33V0ZM32 69C15.4315 69 2 55.5685 2 39C2 22.4315 15.4315 9 32 9C48.5685 9 62 22.4315 62 39C62 55.5685 48.5685 69 32 69Z" fill="white"/>
</svg>
