<svg width="80" height="80" viewBox="0 0 80 80" fill="none" xmlns="http://www.w3.org/2000/svg">
<path fill-rule="evenodd" clip-rule="evenodd" d="M80 40C80 62.0914 62.0914 80 40 80C17.9086 80 0 62.0914 0 40C0 17.9086 17.9086 0 40 0C62.0914 0 80 17.9086 80 40ZM37.3333 22C37.3333 20.1591 38.8257 18.6667 40.6667 18.6667C42.5076 18.6667 44 20.1591 44 22V47.3333C44 49.1743 42.5076 50.6667 40.6667 50.6667C38.8257 50.6667 37.3333 49.1743 37.3333 47.3333V22ZM40.6667 56C38.8257 56 37.3333 57.4924 37.3333 59.3333C37.3333 61.1743 38.8257 62.6667 40.6667 62.6667C42.5076 62.6667 44 61.1743 44 59.3333C44 57.4924 42.5076 56 40.6667 56Z" fill="#12B3BA"/>
<path fill-rule="evenodd" clip-rule="evenodd" d="M80 40C80 62.0914 62.0914 80 40 80C17.9086 80 0 62.0914 0 40C0 17.9086 17.9086 0 40 0C62.0914 0 80 17.9086 80 40ZM37.3333 22C37.3333 20.1591 38.8257 18.6667 40.6667 18.6667C42.5076 18.6667 44 20.1591 44 22V47.3333C44 49.1743 42.5076 50.6667 40.6667 50.6667C38.8257 50.6667 37.3333 49.1743 37.3333 47.3333V22ZM40.6667 56C38.8257 56 37.3333 57.4924 37.3333 59.3333C37.3333 61.1743 38.8257 62.6667 40.6667 62.6667C42.5076 62.6667 44 61.1743 44 59.3333C44 57.4924 42.5076 56 40.6667 56Z" fill="#18C6CD"/>
</svg>
