<svg width="32" height="32" viewBox="0 0 32 32" fill="none" xmlns="http://www.w3.org/2000/svg">
<rect y="32" width="32" height="32" rx="16" transform="rotate(-90 0 32)" fill="white"/>
<rect x="0.5" y="31.5" width="31" height="31" rx="15.5" transform="rotate(-90 0.5 31.5)" stroke="#BFC3D3" stroke-opacity="0.64"/>
<path d="M16.2929 21.2929C15.9024 21.6834 15.9024 22.3166 16.2929 22.7071C16.6834 23.0976 17.3166 23.0976 17.7071 22.7071L23.7071 16.7071C24.0976 16.3166 24.0976 15.6834 23.7071 15.2929L17.7071 9.29289C17.3166 8.90237 16.6834 8.90237 16.2929 9.29289C15.9024 9.68342 15.9024 10.3166 16.2929 10.7071L20.5858 15H10C9.44772 15 9 15.4477 9 16C9 16.5523 9.44772 17 10 17H20.5858L16.2929 21.2929Z" fill="#616161"/>
</svg>
