<svg width="120" height="120" viewBox="0 0 120 120" fill="none" xmlns="http://www.w3.org/2000/svg">
<path fill-rule="evenodd" clip-rule="evenodd" d="M120 60C120 93.1371 93.1371 120 60 120C26.8629 120 0 93.1371 0 60C0 26.8629 26.8629 0 60 0C93.1371 0 120 26.8629 120 60ZM56 32C56 29.7909 57.7909 28 60 28H62C64.2091 28 66 29.7909 66 32V72C66 74.2091 64.2091 76 62 76H60C57.7909 76 56 74.2091 56 72V32ZM60 84C57.7909 84 56 85.7909 56 88V90C56 92.2091 57.7909 94 60 94H62C64.2091 94 66 92.2091 66 90V88C66 85.7909 64.2091 84 62 84H60Z" fill="#12B3BA"/>
<path fill-rule="evenodd" clip-rule="evenodd" d="M120 60C120 93.1371 93.1371 120 60 120C26.8629 120 0 93.1371 0 60C0 26.8629 26.8629 0 60 0C93.1371 0 120 26.8629 120 60ZM56 32C56 29.7909 57.7909 28 60 28H62C64.2091 28 66 29.7909 66 32V72C66 74.2091 64.2091 76 62 76H60C57.7909 76 56 74.2091 56 72V32ZM60 84C57.7909 84 56 85.7909 56 88V90C56 92.2091 57.7909 94 60 94H62C64.2091 94 66 92.2091 66 90V88C66 85.7909 64.2091 84 62 84H60Z" fill="#18C6CD"/>
</svg>
