<svg version="1.1" xmlns="http://www.w3.org/2000/svg" xmlns:xlink="http://www.w3.org/1999/xlink">

    <symbol viewBox="0 0 48 48" id="footer-social-youtube">
        <path fill-rule="evenodd" clip-rule="evenodd" d="M37.909 32.4262C38.8486 30.8161 39.25 28.2197 39.25 23.9962C39.25 19.7894 38.8524 17.2082 37.9028 15.5548C36.9512 13.8379 35.8225 13.2929 33.5827 13.1621C32.0535 13.0585 28.2531 13 24.1287 13C19.9953 13 16.1932 13.0584 14.6526 13.1629C12.4253 13.2932 11.2964 13.8394 10.3364 15.5611C9.40065 17.2087 9 19.8026 9 24.0115C9 28.1966 9.40259 30.8035 10.3446 32.4458C11.2921 34.1453 12.403 34.6849 14.6493 34.8426C16.2638 34.9371 20.2811 35 24.1287 35C27.9676 35 31.9829 34.9371 33.5827 34.8437C35.8496 34.6849 36.9603 34.1444 37.909 32.4262ZM33.4096 15.9066C34.8106 15.9885 35.0705 16.1144 35.5146 16.9183C36.1611 18.038 36.5 20.2294 36.5 24.0115C36.5 27.7651 36.1593 29.9685 35.5176 31.0689C35.0719 31.8752 34.8139 32.0007 33.4064 32.0994C31.8923 32.1877 27.9159 32.25 24.1287 32.25C20.3329 32.25 16.3545 32.1877 14.8259 32.0983C13.4358 32.0006 13.174 31.8735 12.7383 31.092C12.0922 29.9655 11.75 27.7497 11.75 23.9962C11.75 20.2449 12.0904 18.0413 12.733 16.9097C13.1755 16.1161 13.4391 15.9886 14.826 15.9074C16.2945 15.8079 20.0608 15.75 24.1287 15.75C28.1878 15.75 31.9524 15.8079 33.4096 15.9066ZM21.375 19.875L28.25 24L21.375 28.125V19.875Z" />
    </symbol>

    <symbol viewBox="0 0 48 48" id="footer-social-vk">
        <path fill-rule="evenodd" clip-rule="evenodd" d="M22.6563 32.9246H24.5691C24.5691 32.9246 25.1469 32.8621 25.4419 32.5486C25.7134 32.2607 25.7047 31.7201 25.7047 31.7201C25.7047 31.7201 25.6673 29.1895 26.8585 28.8168C28.0328 28.4497 29.5406 31.2627 31.1389 32.3442C32.3474 33.1628 33.2658 32.9833 33.2658 32.9833L37.5392 32.9246C37.5392 32.9246 39.7747 32.7889 38.7148 31.0558C38.6279 30.914 38.0974 29.7738 35.5374 27.4307C32.8579 24.9785 33.2167 25.3751 36.4445 21.1332C38.4102 18.5499 39.1961 16.9728 38.9506 16.2973C38.7165 15.6539 37.2707 15.8239 37.2707 15.8239L32.4591 15.8535C32.4591 15.8535 32.1024 15.8055 31.8379 15.9614C31.5794 16.1144 31.413 16.4707 31.413 16.4707C31.413 16.4707 30.6514 18.4698 29.6358 20.1699C27.4932 23.7573 26.6365 23.9466 26.2864 23.7239C25.4718 23.2047 25.6751 21.6383 25.6751 20.5254C25.6751 17.049 26.2099 15.5995 24.6338 15.2243C24.1108 15.0996 23.7259 15.0174 22.3883 15.0041C20.6715 14.9865 19.2183 15.0092 18.3955 15.4067C17.8482 15.671 17.4259 16.26 17.6831 16.2938C18.0011 16.3358 18.7213 16.4853 19.1032 16.998C19.5963 17.6594 19.5789 19.1449 19.5789 19.1449C19.5789 19.1449 19.8621 23.2373 18.9173 23.7457C18.2687 24.0944 17.379 23.3825 15.4688 20.1279C14.4901 18.4608 13.7511 16.6181 13.7511 16.6181C13.7511 16.6181 13.6086 16.2737 13.3545 16.0895C13.0461 15.8663 12.6151 15.7952 12.6151 15.7952L8.04282 15.8248C8.04282 15.8248 7.35643 15.8436 7.10446 16.1379C6.8803 16.3996 7.08665 16.9411 7.08665 16.9411C7.08665 16.9411 10.6663 25.1986 14.7194 29.36C18.4359 33.1752 22.6563 32.9246 22.6563 32.9246Z" />
    </symbol>

    <symbol viewBox="0 0 48 48" id="footer-social-instagram">
        <path fill-rule="evenodd" clip-rule="evenodd" d="M14 16C14 14.8954 14.8954 14 16 14H32C33.1046 14 34 14.8954 34 16V20.25H29.0005C27.8602 18.7319 26.0448 17.75 24 17.75C21.9552 17.75 20.1398 18.7319 18.9995 20.25H14V16ZM30.125 22.75H34V32C34 33.1046 33.1046 34 32 34H16C14.8954 34 14 33.1046 14 32V22.75H17.875C17.793 23.1539 17.75 23.5719 17.75 24C17.75 27.4518 20.5482 30.25 24 30.25C27.4518 30.25 30.25 27.4518 30.25 24C30.25 23.5719 30.207 23.1539 30.125 22.75ZM24 20.25C21.9289 20.25 20.25 21.9289 20.25 24C20.25 26.0711 21.9289 27.75 24 27.75C26.0711 27.75 27.75 26.0711 27.75 24C27.75 21.9289 26.0711 20.25 24 20.25ZM30.875 19C31.9105 19 32.75 18.1605 32.75 17.125C32.75 16.0895 31.9105 15.25 30.875 15.25C29.8395 15.25 29 16.0895 29 17.125C29 18.1605 29.8395 19 30.875 19Z" />
    </symbol>

    <symbol viewBox="0 0 48 48" id="footer-social-fb">
        <path d="M21.968 25.2497V34H25.621V25.2497H28.3447L28.863 21.6302H25.621V19.2825C25.621 18.292 26.0731 17.326 27.5251 17.326H29V14.2446C29 14.2446 27.6621 14 26.3836 14C23.7123 14 21.968 15.7339 21.968 18.8716V21.6302H19V25.2497H21.968Z" />
    </symbol>

    <symbol viewBox="0 0 48 48" id="main-history-anonce-progress">
        <path fill-rule="evenodd" clip-rule="evenodd" d="M24 48C37.2548 48 48 37.2548 48 24C48 10.7452 37.2548 0 24 0C10.7452 0 0 10.7452 0 24C0 37.2548 10.7452 48 24 48ZM19.3581 19.16C19.3581 20.8172 18.0098 22.1655 16.3525 22.1655C14.6952 22.1655 13.3469 20.8172 13.3469 19.16C13.3469 17.5027 14.6952 16.1544 16.3525 16.1544C18.0098 16.1544 19.3581 17.5027 19.3581 19.16ZM34.7261 19.16C34.7261 20.8172 33.3778 22.1655 31.7206 22.1655C30.0633 22.1655 28.715 20.8172 28.715 19.16C28.715 17.5027 30.0633 16.1544 31.7206 16.1544C33.3778 16.1544 34.7261 17.5027 34.7261 19.16ZM33.7191 28.2542C33.8772 27.7611 34.4053 27.4898 34.8981 27.6478C35.3911 27.8059 35.6626 28.3337 35.5046 28.8268C35.4808 28.901 34.9021 30.6635 33.1862 32.4068C31.6198 33.9982 28.7608 35.8952 24.0366 35.8952C19.3123 35.8952 16.4533 33.9982 14.8868 32.4068C13.1709 30.6635 12.5923 28.901 12.5684 28.8268C12.4104 28.3337 12.6819 27.8059 13.1749 27.6478C13.6679 27.4898 14.1959 27.7611 14.3539 28.2542C14.3575 28.2649 14.8513 29.7254 16.2857 31.1545C18.1945 33.056 20.8023 34.0202 24.0366 34.0202C31.7803 34.0202 33.7006 28.3118 33.7191 28.2542Z" />
    </symbol>

    <symbol viewBox="0 0 24 24" id="gallery-prev">
        <path fill-rule="evenodd" clip-rule="evenodd" d="M15.7071 5.29289C16.0976 5.68342 16.0976 6.31658 15.7071 6.70711L10.4142 12L15.7071 17.2929C16.0976 17.6834 16.0976 18.3166 15.7071 18.7071C15.3166 19.0976 14.6834 19.0976 14.2929 18.7071L8.29289 12.7071C7.90237 12.3166 7.90237 11.6834 8.29289 11.2929L14.2929 5.29289C14.6834 4.90237 15.3166 4.90237 15.7071 5.29289Z" />
    </symbol>

    <symbol viewBox="0 0 24 24" id="gallery-next">
        <path fill-rule="evenodd" clip-rule="evenodd" d="M8.29289 18.7071C7.90237 18.3166 7.90237 17.6834 8.29289 17.2929L13.5858 12L8.29289 6.70711C7.90237 6.31658 7.90237 5.68342 8.29289 5.29289C8.68342 4.90237 9.31658 4.90237 9.70711 5.29289L15.7071 11.2929C16.0976 11.6834 16.0976 12.3166 15.7071 12.7071L9.70711 18.7071C9.31658 19.0976 8.68342 19.0976 8.29289 18.7071Z" />
    </symbol>

    <symbol viewBox="0 0 11 10" id="all-link">
        <path d="M5.34812 8.78064C5.06174 9.05958 5.06174 9.51184 5.34812 9.79079C5.63451 10.0697 6.09883 10.0697 6.38521 9.79079L10.7852 5.50508C11.0716 5.22613 11.0716 4.77387 10.7852 4.49492L6.38521 0.20921C6.09883 -0.0697366 5.63451 -0.0697366 5.34812 0.20921C5.06174 0.488155 5.06174 0.940416 5.34812 1.21936L8.49624 4.28571H0.733333C0.328325 4.28571 0 4.60551 0 5C0 5.39449 0.328325 5.71429 0.733333 5.71429H8.49624L5.34812 8.78064Z" />
    </symbol>

    <symbol viewBox="0 0 48 48" id="main-doctors-icon">
        <circle cx="24" cy="24" r="24" fill="#12B3BA" />
        <circle cx="24" cy="24" r="24" fill="#18C6CD" />
        <path d="M18.1869 11.1834C18.555 10.8081 18.9959 10.5099 19.4833 10.3066C19.9707 10.1032 20.4945 9.99897 21.0237 10C21.8005 10 22.7772 10.5435 23.8471 11.5691C23.9339 11.6566 24.0375 11.7261 24.1518 11.7735C24.2662 11.821 24.3889 11.8454 24.513 11.8454C24.637 11.8454 24.7598 11.821 24.8741 11.7735C24.9885 11.7261 25.0921 11.6566 25.1789 11.5691C26.0378 10.7145 27.2003 10.2239 28.4196 10.2016C28.8682 10.1984 29.3128 10.2844 29.727 10.4546C30.1412 10.6248 30.5164 10.8756 30.8301 11.1922C31.5812 11.9719 32 13.0068 32 14.0828C32 15.1588 31.5812 16.1937 30.8301 16.9734L24.4952 23L18.1869 16.9821C17.4256 16.2041 17 15.1646 17 14.0828C17 13.001 17.4256 11.9614 18.1869 11.1834Z" fill="white" />
        <path d="M18.1869 11.1834C18.555 10.8081 18.9959 10.5099 19.4833 10.3066C19.9707 10.1032 20.4945 9.99897 21.0237 10C21.8005 10 22.7772 10.5435 23.8471 11.5691C23.9339 11.6566 24.0375 11.7261 24.1518 11.7735C24.2662 11.821 24.3889 11.8454 24.513 11.8454C24.637 11.8454 24.7598 11.821 24.8741 11.7735C24.9885 11.7261 25.0921 11.6566 25.1789 11.5691C26.0378 10.7145 27.2003 10.2239 28.4196 10.2016C28.8682 10.1984 29.3128 10.2844 29.727 10.4546C30.1412 10.6248 30.5164 10.8756 30.8301 11.1922C31.5812 11.9719 32 13.0068 32 14.0828C32 15.1588 31.5812 16.1937 30.8301 16.9734L24.4952 23L18.1869 16.9821C17.4256 16.2041 17 15.1646 17 14.0828C17 13.001 17.4256 11.9614 18.1869 11.1834Z" fill="white" />
        <path d="M38.7156 27.8556L30.6153 36.0244C30.3028 36.3392 29.8837 36.5163 29.4467 36.5182L18.1045 36.5701C17.9916 36.57 17.8798 36.5934 17.7757 36.6388C17.6717 36.6841 17.5777 36.7507 17.4992 36.8343L15.1644 38.5006C14.762 38.7878 14.2102 38.7378 13.8659 38.3831L9.72953 34.121C9.33221 33.7116 9.35734 33.0533 9.78472 32.6754L16.558 26.6861C16.8303 26.4361 17.1741 26.2841 17.5375 26.253L27.1132 25.0099C27.4102 24.9707 27.7105 25.0491 27.9535 25.2292C28.1964 25.4094 28.364 25.6779 28.4222 25.9805C28.4803 26.2831 28.4249 26.5971 28.267 26.8592C28.109 27.1212 27.8604 27.3117 27.5714 27.3921L21.9849 28.9644C21.8546 29.001 21.7349 29.0693 21.6357 29.1637C21.5365 29.258 21.4608 29.3756 21.4151 29.5064C21.3693 29.6373 21.3548 29.7776 21.3727 29.9154C21.3907 30.0533 21.4406 30.1846 21.5183 30.2984L23.7573 31.3518C23.6197 31.2885 23.8444 31.4784 23.7573 31.3518C23.8948 31.415 24.0463 31.439 24.196 31.4213L30.0268 30.6113C30.2058 30.5866 30.3724 30.503 30.5018 30.3731L37.0215 26.0364C37.2607 25.843 37.5611 25.7483 37.8643 25.7707C38.1674 25.7931 38.4517 25.931 38.6616 26.1576C38.8714 26.3841 38.992 26.6831 38.9996 26.9962C39.0073 27.3093 38.9015 27.6141 38.703 27.8512L38.7156 27.8556Z" fill="white" />
        <path d="M38.7156 27.8556L30.6153 36.0244C30.3028 36.3392 29.8837 36.5163 29.4467 36.5182L18.1045 36.5701C17.9916 36.57 17.8798 36.5934 17.7757 36.6388C17.6717 36.6841 17.5777 36.7507 17.4992 36.8343L15.1644 38.5006C14.762 38.7878 14.2102 38.7378 13.8659 38.3831L9.72953 34.121C9.33221 33.7116 9.35734 33.0533 9.78472 32.6754L16.558 26.6861C16.8303 26.4361 17.1741 26.2841 17.5375 26.253L27.1132 25.0099C27.4102 24.9707 27.7105 25.0491 27.9535 25.2292C28.1964 25.4094 28.364 25.6779 28.4222 25.9805C28.4803 26.2831 28.4249 26.5971 28.267 26.8592C28.109 27.1212 27.8604 27.3117 27.5714 27.3921L21.9849 28.9644C21.8546 29.001 21.7349 29.0693 21.6357 29.1637C21.5365 29.258 21.4608 29.3756 21.4151 29.5064C21.3693 29.6373 21.3548 29.7776 21.3727 29.9154C21.3907 30.0533 21.4406 30.1846 21.5183 30.2984L23.7573 31.3518C23.6197 31.2885 23.8444 31.4784 23.7573 31.3518C23.8948 31.415 24.0463 31.439 24.196 31.4213L30.0268 30.6113C30.2058 30.5866 30.3724 30.503 30.5018 30.3731L37.0215 26.0364C37.2607 25.843 37.5611 25.7483 37.8643 25.7707C38.1674 25.7931 38.4517 25.931 38.6616 26.1576C38.8714 26.3841 38.992 26.6831 38.9996 26.9962C39.0073 27.3093 38.9015 27.6141 38.703 27.8512L38.7156 27.8556Z" fill="white" />
    </symbol>

</svg>