<svg version="1.1" xmlns="http://www.w3.org/2000/svg" xmlns:xlink="http://www.w3.org/1999/xlink">

    <symbol viewBox="0 0 48 48" id="footer-social-youtube">
        <path fill-rule="evenodd" clip-rule="evenodd" d="M37.909 32.4262C38.8486 30.8161 39.25 28.2197 39.25 23.9962C39.25 19.7894 38.8524 17.2082 37.9028 15.5548C36.9512 13.8379 35.8225 13.2929 33.5827 13.1621C32.0535 13.0585 28.2531 13 24.1287 13C19.9953 13 16.1932 13.0584 14.6526 13.1629C12.4253 13.2932 11.2964 13.8394 10.3364 15.5611C9.40065 17.2087 9 19.8026 9 24.0115C9 28.1966 9.40259 30.8035 10.3446 32.4458C11.2921 34.1453 12.403 34.6849 14.6493 34.8426C16.2638 34.9371 20.2811 35 24.1287 35C27.9676 35 31.9829 34.9371 33.5827 34.8437C35.8496 34.6849 36.9603 34.1444 37.909 32.4262ZM33.4096 15.9066C34.8106 15.9885 35.0705 16.1144 35.5146 16.9183C36.1611 18.038 36.5 20.2294 36.5 24.0115C36.5 27.7651 36.1593 29.9685 35.5176 31.0689C35.0719 31.8752 34.8139 32.0007 33.4064 32.0994C31.8923 32.1877 27.9159 32.25 24.1287 32.25C20.3329 32.25 16.3545 32.1877 14.8259 32.0983C13.4358 32.0006 13.174 31.8735 12.7383 31.092C12.0922 29.9655 11.75 27.7497 11.75 23.9962C11.75 20.2449 12.0904 18.0413 12.733 16.9097C13.1755 16.1161 13.4391 15.9886 14.826 15.9074C16.2945 15.8079 20.0608 15.75 24.1287 15.75C28.1878 15.75 31.9524 15.8079 33.4096 15.9066ZM21.375 19.875L28.25 24L21.375 28.125V19.875Z" />
    </symbol>

    <symbol viewBox="0 0 48 48" id="footer-social-vk">
        <path fill-rule="evenodd" clip-rule="evenodd" d="M22.6563 32.9246H24.5691C24.5691 32.9246 25.1469 32.8621 25.4419 32.5486C25.7134 32.2607 25.7047 31.7201 25.7047 31.7201C25.7047 31.7201 25.6673 29.1895 26.8585 28.8168C28.0328 28.4497 29.5406 31.2627 31.1389 32.3442C32.3474 33.1628 33.2658 32.9833 33.2658 32.9833L37.5392 32.9246C37.5392 32.9246 39.7747 32.7889 38.7148 31.0558C38.6279 30.914 38.0974 29.7738 35.5374 27.4307C32.8579 24.9785 33.2167 25.3751 36.4445 21.1332C38.4102 18.5499 39.1961 16.9728 38.9506 16.2973C38.7165 15.6539 37.2707 15.8239 37.2707 15.8239L32.4591 15.8535C32.4591 15.8535 32.1024 15.8055 31.8379 15.9614C31.5794 16.1144 31.413 16.4707 31.413 16.4707C31.413 16.4707 30.6514 18.4698 29.6358 20.1699C27.4932 23.7573 26.6365 23.9466 26.2864 23.7239C25.4718 23.2047 25.6751 21.6383 25.6751 20.5254C25.6751 17.049 26.2099 15.5995 24.6338 15.2243C24.1108 15.0996 23.7259 15.0174 22.3883 15.0041C20.6715 14.9865 19.2183 15.0092 18.3955 15.4067C17.8482 15.671 17.4259 16.26 17.6831 16.2938C18.0011 16.3358 18.7213 16.4853 19.1032 16.998C19.5963 17.6594 19.5789 19.1449 19.5789 19.1449C19.5789 19.1449 19.8621 23.2373 18.9173 23.7457C18.2687 24.0944 17.379 23.3825 15.4688 20.1279C14.4901 18.4608 13.7511 16.6181 13.7511 16.6181C13.7511 16.6181 13.6086 16.2737 13.3545 16.0895C13.0461 15.8663 12.6151 15.7952 12.6151 15.7952L8.04282 15.8248C8.04282 15.8248 7.35643 15.8436 7.10446 16.1379C6.8803 16.3996 7.08665 16.9411 7.08665 16.9411C7.08665 16.9411 10.6663 25.1986 14.7194 29.36C18.4359 33.1752 22.6563 32.9246 22.6563 32.9246Z" />
    </symbol>

    <symbol viewBox="0 0 48 48" id="footer-social-instagram">
        <path fill-rule="evenodd" clip-rule="evenodd" d="M14 16C14 14.8954 14.8954 14 16 14H32C33.1046 14 34 14.8954 34 16V20.25H29.0005C27.8602 18.7319 26.0448 17.75 24 17.75C21.9552 17.75 20.1398 18.7319 18.9995 20.25H14V16ZM30.125 22.75H34V32C34 33.1046 33.1046 34 32 34H16C14.8954 34 14 33.1046 14 32V22.75H17.875C17.793 23.1539 17.75 23.5719 17.75 24C17.75 27.4518 20.5482 30.25 24 30.25C27.4518 30.25 30.25 27.4518 30.25 24C30.25 23.5719 30.207 23.1539 30.125 22.75ZM24 20.25C21.9289 20.25 20.25 21.9289 20.25 24C20.25 26.0711 21.9289 27.75 24 27.75C26.0711 27.75 27.75 26.0711 27.75 24C27.75 21.9289 26.0711 20.25 24 20.25ZM30.875 19C31.9105 19 32.75 18.1605 32.75 17.125C32.75 16.0895 31.9105 15.25 30.875 15.25C29.8395 15.25 29 16.0895 29 17.125C29 18.1605 29.8395 19 30.875 19Z" />
    </symbol>

    <symbol viewBox="0 0 48 48" id="footer-social-fb">
        <path d="M21.968 25.2497V34H25.621V25.2497H28.3447L28.863 21.6302H25.621V19.2825C25.621 18.292 26.0731 17.326 27.5251 17.326H29V14.2446C29 14.2446 27.6621 14 26.3836 14C23.7123 14 21.968 15.7339 21.968 18.8716V21.6302H19V25.2497H21.968Z" />
    </symbol>

    <symbol viewBox="0 0 48 48" id="main-history-anonce-progress">
        <path fill-rule="evenodd" clip-rule="evenodd" d="M24 48C37.2548 48 48 37.2548 48 24C48 10.7452 37.2548 0 24 0C10.7452 0 0 10.7452 0 24C0 37.2548 10.7452 48 24 48ZM19.3581 19.16C19.3581 20.8172 18.0098 22.1655 16.3525 22.1655C14.6952 22.1655 13.3469 20.8172 13.3469 19.16C13.3469 17.5027 14.6952 16.1544 16.3525 16.1544C18.0098 16.1544 19.3581 17.5027 19.3581 19.16ZM34.7261 19.16C34.7261 20.8172 33.3778 22.1655 31.7206 22.1655C30.0633 22.1655 28.715 20.8172 28.715 19.16C28.715 17.5027 30.0633 16.1544 31.7206 16.1544C33.3778 16.1544 34.7261 17.5027 34.7261 19.16ZM33.7191 28.2542C33.8772 27.7611 34.4053 27.4898 34.8981 27.6478C35.3911 27.8059 35.6626 28.3337 35.5046 28.8268C35.4808 28.901 34.9021 30.6635 33.1862 32.4068C31.6198 33.9982 28.7608 35.8952 24.0366 35.8952C19.3123 35.8952 16.4533 33.9982 14.8868 32.4068C13.1709 30.6635 12.5923 28.901 12.5684 28.8268C12.4104 28.3337 12.6819 27.8059 13.1749 27.6478C13.6679 27.4898 14.1959 27.7611 14.3539 28.2542C14.3575 28.2649 14.8513 29.7254 16.2857 31.1545C18.1945 33.056 20.8023 34.0202 24.0366 34.0202C31.7803 34.0202 33.7006 28.3118 33.7191 28.2542Z" />
    </symbol>

    <symbol viewBox="0 0 24 24" id="gallery-prev">
        <path fill-rule="evenodd" clip-rule="evenodd" d="M15.7071 5.29289C16.0976 5.68342 16.0976 6.31658 15.7071 6.70711L10.4142 12L15.7071 17.2929C16.0976 17.6834 16.0976 18.3166 15.7071 18.7071C15.3166 19.0976 14.6834 19.0976 14.2929 18.7071L8.29289 12.7071C7.90237 12.3166 7.90237 11.6834 8.29289 11.2929L14.2929 5.29289C14.6834 4.90237 15.3166 4.90237 15.7071 5.29289Z" />
    </symbol>

    <symbol viewBox="0 0 24 24" id="gallery-next">
        <path fill-rule="evenodd" clip-rule="evenodd" d="M8.29289 18.7071C7.90237 18.3166 7.90237 17.6834 8.29289 17.2929L13.5858 12L8.29289 6.70711C7.90237 6.31658 7.90237 5.68342 8.29289 5.29289C8.68342 4.90237 9.31658 4.90237 9.70711 5.29289L15.7071 11.2929C16.0976 11.6834 16.0976 12.3166 15.7071 12.7071L9.70711 18.7071C9.31658 19.0976 8.68342 19.0976 8.29289 18.7071Z" />
    </symbol>

    <symbol viewBox="0 0 11 10" id="all-link">
        <path d="M5.34812 8.78064C5.06174 9.05958 5.06174 9.51184 5.34812 9.79079C5.63451 10.0697 6.09883 10.0697 6.38521 9.79079L10.7852 5.50508C11.0716 5.22613 11.0716 4.77387 10.7852 4.49492L6.38521 0.20921C6.09883 -0.0697366 5.63451 -0.0697366 5.34812 0.20921C5.06174 0.488155 5.06174 0.940416 5.34812 1.21936L8.49624 4.28571H0.733333C0.328325 4.28571 0 4.60551 0 5C0 5.39449 0.328325 5.71429 0.733333 5.71429H8.49624L5.34812 8.78064Z" />
    </symbol>

    <symbol viewBox="0 0 48 48" id="main-doctors-icon">
        <circle cx="24" cy="24" r="24" fill="#12B3BA" />
        <circle cx="24" cy="24" r="24" fill="#18C6CD" />
        <path d="M18.1869 11.1834C18.555 10.8081 18.9959 10.5099 19.4833 10.3066C19.9707 10.1032 20.4945 9.99897 21.0237 10C21.8005 10 22.7772 10.5435 23.8471 11.5691C23.9339 11.6566 24.0375 11.7261 24.1518 11.7735C24.2662 11.821 24.3889 11.8454 24.513 11.8454C24.637 11.8454 24.7598 11.821 24.8741 11.7735C24.9885 11.7261 25.0921 11.6566 25.1789 11.5691C26.0378 10.7145 27.2003 10.2239 28.4196 10.2016C28.8682 10.1984 29.3128 10.2844 29.727 10.4546C30.1412 10.6248 30.5164 10.8756 30.8301 11.1922C31.5812 11.9719 32 13.0068 32 14.0828C32 15.1588 31.5812 16.1937 30.8301 16.9734L24.4952 23L18.1869 16.9821C17.4256 16.2041 17 15.1646 17 14.0828C17 13.001 17.4256 11.9614 18.1869 11.1834Z" fill="white" />
        <path d="M18.1869 11.1834C18.555 10.8081 18.9959 10.5099 19.4833 10.3066C19.9707 10.1032 20.4945 9.99897 21.0237 10C21.8005 10 22.7772 10.5435 23.8471 11.5691C23.9339 11.6566 24.0375 11.7261 24.1518 11.7735C24.2662 11.821 24.3889 11.8454 24.513 11.8454C24.637 11.8454 24.7598 11.821 24.8741 11.7735C24.9885 11.7261 25.0921 11.6566 25.1789 11.5691C26.0378 10.7145 27.2003 10.2239 28.4196 10.2016C28.8682 10.1984 29.3128 10.2844 29.727 10.4546C30.1412 10.6248 30.5164 10.8756 30.8301 11.1922C31.5812 11.9719 32 13.0068 32 14.0828C32 15.1588 31.5812 16.1937 30.8301 16.9734L24.4952 23L18.1869 16.9821C17.4256 16.2041 17 15.1646 17 14.0828C17 13.001 17.4256 11.9614 18.1869 11.1834Z" fill="white" />
        <path d="M38.7156 27.8556L30.6153 36.0244C30.3028 36.3392 29.8837 36.5163 29.4467 36.5182L18.1045 36.5701C17.9916 36.57 17.8798 36.5934 17.7757 36.6388C17.6717 36.6841 17.5777 36.7507 17.4992 36.8343L15.1644 38.5006C14.762 38.7878 14.2102 38.7378 13.8659 38.3831L9.72953 34.121C9.33221 33.7116 9.35734 33.0533 9.78472 32.6754L16.558 26.6861C16.8303 26.4361 17.1741 26.2841 17.5375 26.253L27.1132 25.0099C27.4102 24.9707 27.7105 25.0491 27.9535 25.2292C28.1964 25.4094 28.364 25.6779 28.4222 25.9805C28.4803 26.2831 28.4249 26.5971 28.267 26.8592C28.109 27.1212 27.8604 27.3117 27.5714 27.3921L21.9849 28.9644C21.8546 29.001 21.7349 29.0693 21.6357 29.1637C21.5365 29.258 21.4608 29.3756 21.4151 29.5064C21.3693 29.6373 21.3548 29.7776 21.3727 29.9154C21.3907 30.0533 21.4406 30.1846 21.5183 30.2984L23.7573 31.3518C23.6197 31.2885 23.8444 31.4784 23.7573 31.3518C23.8948 31.415 24.0463 31.439 24.196 31.4213L30.0268 30.6113C30.2058 30.5866 30.3724 30.503 30.5018 30.3731L37.0215 26.0364C37.2607 25.843 37.5611 25.7483 37.8643 25.7707C38.1674 25.7931 38.4517 25.931 38.6616 26.1576C38.8714 26.3841 38.992 26.6831 38.9996 26.9962C39.0073 27.3093 38.9015 27.6141 38.703 27.8512L38.7156 27.8556Z" fill="white" />
        <path d="M38.7156 27.8556L30.6153 36.0244C30.3028 36.3392 29.8837 36.5163 29.4467 36.5182L18.1045 36.5701C17.9916 36.57 17.8798 36.5934 17.7757 36.6388C17.6717 36.6841 17.5777 36.7507 17.4992 36.8343L15.1644 38.5006C14.762 38.7878 14.2102 38.7378 13.8659 38.3831L9.72953 34.121C9.33221 33.7116 9.35734 33.0533 9.78472 32.6754L16.558 26.6861C16.8303 26.4361 17.1741 26.2841 17.5375 26.253L27.1132 25.0099C27.4102 24.9707 27.7105 25.0491 27.9535 25.2292C28.1964 25.4094 28.364 25.6779 28.4222 25.9805C28.4803 26.2831 28.4249 26.5971 28.267 26.8592C28.109 27.1212 27.8604 27.3117 27.5714 27.3921L21.9849 28.9644C21.8546 29.001 21.7349 29.0693 21.6357 29.1637C21.5365 29.258 21.4608 29.3756 21.4151 29.5064C21.3693 29.6373 21.3548 29.7776 21.3727 29.9154C21.3907 30.0533 21.4406 30.1846 21.5183 30.2984L23.7573 31.3518C23.6197 31.2885 23.8444 31.4784 23.7573 31.3518C23.8948 31.415 24.0463 31.439 24.196 31.4213L30.0268 30.6113C30.2058 30.5866 30.3724 30.503 30.5018 30.3731L37.0215 26.0364C37.2607 25.843 37.5611 25.7483 37.8643 25.7707C38.1674 25.7931 38.4517 25.931 38.6616 26.1576C38.8714 26.3841 38.992 26.6831 38.9996 26.9962C39.0073 27.3093 38.9015 27.6141 38.703 27.8512L38.7156 27.8556Z" fill="white" />
    </symbol>

    <symbol viewBox="0 0 48 48" id="main-fear-dark">
        <path fill-rule="evenodd" clip-rule="evenodd" d="M48 24C48 37.2548 37.2548 48 24 48C10.7452 48 0 37.2548 0 24C0 10.7452 10.7452 0 24 0C37.2548 0 48 10.7452 48 24ZM16.3525 22.1655C18.0098 22.1655 19.3581 20.8172 19.3581 19.16C19.3581 17.5027 18.0098 16.1544 16.3525 16.1544C14.6952 16.1544 13.3469 17.5027 13.3469 19.16C13.3469 20.8172 14.6952 22.1655 16.3525 22.1655ZM31.7206 22.1655C33.3778 22.1655 34.7261 20.8172 34.7261 19.16C34.7261 17.5027 33.3778 16.1544 31.7206 16.1544C30.0633 16.1544 28.715 17.5027 28.715 19.16C28.715 20.8172 30.0633 22.1655 31.7206 22.1655ZM24 39C27.3137 39 30 36.3137 30 33C30 29.6863 27.3137 27 24 27C20.6863 27 18 29.6863 18 33C18 36.3137 20.6863 39 24 39Z" />
    </symbol>

    <symbol viewBox="0 0 48 48" id="main-fear-light">
        <path fill-rule="evenodd" clip-rule="evenodd" d="M24 48C37.2548 48 48 37.2548 48 24C48 10.7452 37.2548 0 24 0C10.7452 0 0 10.7452 0 24C0 37.2548 10.7452 48 24 48ZM19.3581 19.16C19.3581 20.8172 18.0098 22.1655 16.3525 22.1655C14.6952 22.1655 13.3469 20.8172 13.3469 19.16C13.3469 17.5027 14.6952 16.1544 16.3525 16.1544C18.0098 16.1544 19.3581 17.5027 19.3581 19.16ZM34.7261 19.16C34.7261 20.8172 33.3778 22.1655 31.7206 22.1655C30.0633 22.1655 28.715 20.8172 28.715 19.16C28.715 17.5027 30.0633 16.1544 31.7206 16.1544C33.3778 16.1544 34.7261 17.5027 34.7261 19.16ZM33.7191 28.2542C33.8772 27.7611 34.4053 27.4898 34.8981 27.6478C35.3911 27.8059 35.6626 28.3337 35.5046 28.8268C35.4808 28.901 34.9021 30.6635 33.1862 32.4068C31.6198 33.9982 28.7608 35.8952 24.0366 35.8952C19.3123 35.8952 16.4533 33.9982 14.8868 32.4068C13.1709 30.6635 12.5923 28.901 12.5684 28.8268C12.4104 28.3337 12.6819 27.8059 13.1749 27.6478C13.6679 27.4898 14.1959 27.7611 14.3539 28.2542C14.3575 28.2649 14.8513 29.7254 16.2857 31.1545C18.1945 33.056 20.8023 34.0202 24.0366 34.0202C31.7803 34.0202 33.7006 28.3118 33.7191 28.2542Z" />
    </symbol>

    <symbol viewBox="0 0 48 48" id="main-important-icon">
        <circle cx="24" cy="24" r="24" fill="#12B3BA" />
        <circle cx="24" cy="24" r="24" fill="#18C6CD" />
        <path d="M16 12H24.1H28.15L34 18V36H16V12Z" fill="white" />
        <rect x="20" y="19" width="10" height="2" fill="#12B3BA" />
        <rect x="20" y="19" width="10" height="2" fill="#18C6CD" />
        <rect x="20" y="24" width="10" height="2" fill="#12B3BA" />
        <rect x="20" y="24" width="10" height="2" fill="#18C6CD" />
        <rect x="20" y="29" width="10" height="2" fill="#12B3BA" />
        <rect x="20" y="29" width="10" height="2" fill="#18C6CD" />
    </symbol>

    <symbol viewBox="0 0 48 48" id="main-record-icon">
        <circle cx="24" cy="24" r="24" fill="#12B3BA" />
        <circle cx="24" cy="24" r="24" fill="#18C6CD" />
        <path fill-rule="evenodd" clip-rule="evenodd" d="M20 18H18V17H16V20H32V17H30V18H28V17H20V18ZM32 22H16V32H32V22ZM28 15H20V14H18V15H16C14.8954 15 14 15.8954 14 17V32C14 33.1046 14.8954 34 16 34H32C33.1046 34 34 33.1046 34 32V17C34 15.8954 33.1046 15 32 15H30V14H28V15ZM19 26V24H21V26H19ZM23 26H25V24H23V26ZM27 26V24H29V26H27ZM19 28V30H21V28H19ZM25 30H23V28H25V30Z" fill="white" />
    </symbol>

    <symbol viewBox="0 0 48 48" id="main-phone-icon">
        <circle cx="24" cy="24" r="24" fill="white" />
        <path d="M28.5 14H20.5C19.12 14 18 15.12 18 16.5V33.5C18 34.88 19.12 36 20.5 36H28.5C29.88 36 31 34.88 31 33.5V16.5C31 15.12 29.88 14 28.5 14ZM24.5 35C23.67 35 23 34.33 23 33.5C23 32.67 23.67 32 24.5 32C25.33 32 26 32.67 26 33.5C26 34.33 25.33 35 24.5 35ZM29 31H20V17H29V31Z" fill="#12B3BA" />
        <path d="M28.5 14H20.5C19.12 14 18 15.12 18 16.5V33.5C18 34.88 19.12 36 20.5 36H28.5C29.88 36 31 34.88 31 33.5V16.5C31 15.12 29.88 14 28.5 14ZM24.5 35C23.67 35 23 34.33 23 33.5C23 32.67 23.67 32 24.5 32C25.33 32 26 32.67 26 33.5C26 34.33 25.33 35 24.5 35ZM29 31H20V17H29V31Z" fill="#18C6CD" />
    </symbol>

    <symbol viewBox="0 0 48 48" id="main-contacts-icon">
        <circle cx="24" cy="24" r="24" fill="#18C6CD" />
        <g opacity="0.8">
            <path d="M22 21C22 19.9 22.9 19 24 19C24.5304 19 25.0391 19.2107 25.4142 19.5858C25.7893 19.9609 26 20.4696 26 21C26 21.5304 25.7893 22.0391 25.4142 22.4142C25.0391 22.7893 24.5304 23 24 23C22.9 23 22 22.1 22 21Z" fill="white" />
            <path fill-rule="evenodd" clip-rule="evenodd" d="M17 21.15C17 16.46 20.73 14 24 14C27.27 14 31 16.46 31 21.15C31 24.27 28.67 27.56 24 31C19.33 27.56 17 24.27 17 21.15ZM29 21.15C29 17.4 25.93 16 24 16C22.07 16 19 17.4 19 21.15C19 23.3 20.72 25.82 24 28.47C27.28 25.82 29 23.31 29 21.15Z" fill="white" />
            <path d="M18 32C17.4477 32 17 32.4477 17 33C17 33.5523 17.4477 34 18 34H30C30.5523 34 31 33.5523 31 33C31 32.4477 30.5523 32 30 32H18Z" fill="white" />
        </g>
    </symbol>

    <symbol viewBox="0 0 24 24" id="icon-calendar">
        <path fill-rule="evenodd" clip-rule="evenodd" d="M8 6H6V5H4V8H20V5H18V6H16V5H8V6ZM20 10H4V20H20V10ZM16 3H8V2H6V3H4C2.89543 3 2 3.89543 2 5V20C2 21.1046 2.89543 22 4 22H20C21.1046 22 22 21.1046 22 20V5C22 3.89543 21.1046 3 20 3H18V2H16V3ZM7 14V12H9V14H7ZM11 14H13V12H11V14ZM15 14V12H17V14H15ZM7 16V18H9V16H7ZM13 18H11V16H13V18Z" />
    </symbol>

    <symbol viewBox="0 0 14 20" id="top-right-address">
        <path d="M5 7C5 5.9 5.9 5 7 5C7.53043 5 8.03914 5.21071 8.41421 5.58579C8.78929 5.96086 9 6.46957 9 7C9 7.53043 8.78929 8.03914 8.41421 8.41421C8.03914 8.78929 7.53043 9 7 9C5.9 9 5 8.1 5 7Z" />
        <path fill-rule="evenodd" clip-rule="evenodd" d="M0 7.15C0 2.46 3.73 0 7 0C10.27 0 14 2.46 14 7.15C14 10.27 11.67 13.56 7 17C2.33 13.56 0 10.27 0 7.15ZM12 7.15C12 3.4 8.93 2 7 2C5.07 2 2 3.4 2 7.15C2 9.3 3.72 11.82 7 14.47C10.28 11.82 12 9.31 12 7.15Z" />
        <path d="M1 18C0.447715 18 0 18.4477 0 19C0 19.5523 0.447716 20 1 20H13C13.5523 20 14 19.5523 14 19C14 18.4477 13.5523 18 13 18H1Z" />
    </symbol>

    <symbol viewBox="0 0 24 24" id="main-video-icon">
        <path d="M9.89062 9.89062C10.4844 9.29688 11.1875 9 12 9C12.8125 9 13.5156 9.29688 14.1094 9.89062C14.7031 10.4844 15 11.1875 15 12C15 12.8125 14.7031 13.5156 14.1094 14.1094C13.5156 14.7031 12.8125 15 12 15C11.1875 15 10.4844 14.7031 9.89062 14.1094C9.29688 13.5156 9 12.8125 9 12C9 11.1875 9.29688 10.4844 9.89062 9.89062ZM8.4375 15.5625C9.4375 16.5312 10.625 17.0156 12 17.0156C13.375 17.0156 14.5469 16.5312 15.5156 15.5625C16.5156 14.5625 17.0156 13.375 17.0156 12C17.0156 10.625 16.5156 9.45312 15.5156 8.48438C14.5469 7.48438 13.375 6.98438 12 6.98438C10.625 6.98438 9.4375 7.48438 8.4375 8.48438C7.46875 9.45312 6.98438 10.625 6.98438 12C6.98438 13.375 7.46875 14.5625 8.4375 15.5625ZM5.29688 6.5625C7.29688 5.1875 9.53125 4.5 12 4.5C14.4688 4.5 16.7031 5.1875 18.7031 6.5625C20.7031 7.9375 22.1406 9.75 23.0156 12C22.1406 14.25 20.7031 16.0625 18.7031 17.4375C16.7031 18.8125 14.4688 19.5 12 19.5C9.53125 19.5 7.29688 18.8125 5.29688 17.4375C3.29688 16.0625 1.85938 14.25 0.984375 12C1.85938 9.75 3.29688 7.9375 5.29688 6.5625Z" />
    </symbol>

    <symbol viewBox="0 0 24 24" id="side-panel-record">
        <path d="M20 15.5C18.75 15.5 17.55 15.3 16.43 14.93C16.33 14.9 16.22 14.88 16.12 14.88C15.86 14.88 15.61 14.98 15.41 15.17L13.21 17.37C10.38 15.93 8.06 13.62 6.62 10.79L8.82 8.58C9.1 8.31 9.18 7.92 9.07 7.57C8.7 6.45 8.5 5.25 8.5 4C8.5 3.45 8.05 3 7.5 3H4C3.45 3 3 3.45 3 4C3 13.39 10.61 21 20 21C20.55 21 21 20.55 21 20V16.5C21 15.95 20.55 15.5 20 15.5ZM5.03 5H6.53C6.6 5.88 6.75 6.75 6.99 7.59L5.79 8.8C5.38 7.59 5.12 6.32 5.03 5ZM19 18.97C17.68 18.88 16.4 18.62 15.2 18.21L16.4 17.01C17.25 17.25 18.12 17.4 19 17.46V18.97ZM12 3V13L15 10H21V3H12ZM19 8H14V5H19V8Z" />
    </symbol>

    <symbol viewBox="0 0 24 24" id="side-panel-address">
        <path d="M10 9C10 7.9 10.9 7 12 7C12.5304 7 13.0391 7.21071 13.4142 7.58579C13.7893 7.96086 14 8.46957 14 9C14 9.53043 13.7893 10.0391 13.4142 10.4142C13.0391 10.7893 12.5304 11 12 11C10.9 11 10 10.1 10 9Z" />
        <path fill-rule="evenodd" clip-rule="evenodd" d="M5 9.15C5 4.46 8.73 2 12 2C15.27 2 19 4.46 19 9.15C19 12.27 16.67 15.56 12 19C7.33 15.56 5 12.27 5 9.15ZM17 9.15C17 5.4 13.93 4 12 4C10.07 4 7 5.4 7 9.15C7 11.3 8.72 13.82 12 16.47C15.28 13.82 17 11.31 17 9.15Z" />
        <path d="M6 20C5.44772 20 5 20.4477 5 21C5 21.5523 5.44772 22 6 22H18C18.5523 22 19 21.5523 19 21C19 20.4477 18.5523 20 18 20H6Z" />
    </symbol>

    <symbol viewBox="0 0 24 24" id="side-panel-schedule">
        <path d="M11.99 2C6.47 2 2 6.48 2 12C2 17.52 6.47 22 11.99 22C17.52 22 22 17.52 22 12C22 6.48 17.52 2 11.99 2ZM12 20C7.58 20 4 16.42 4 12C4 7.58 7.58 4 12 4C16.42 4 20 7.58 20 12C20 16.42 16.42 20 12 20ZM12.5 7H11V13L16.25 16.15L17 14.92L12.5 12.25V7Z" />
    </symbol>

    <symbol viewBox="0 0 11 10" id="side-panel-arrow">
        <path d="M5.34812 8.78064C5.06174 9.05958 5.06174 9.51184 5.34812 9.79079C5.63451 10.0697 6.09883 10.0697 6.38521 9.79079L10.7852 5.50508C11.0716 5.22613 11.0716 4.77387 10.7852 4.49492L6.38521 0.20921C6.09883 -0.0697366 5.63451 -0.0697366 5.34812 0.20921C5.06174 0.488155 5.06174 0.940416 5.34812 1.21936L8.49624 4.28571H0.733333C0.328325 4.28571 0 4.60551 0 5C0 5.39449 0.328325 5.71429 0.733333 5.71429H8.49624L5.34812 8.78064Z" />
    </symbol>

    <symbol viewBox="0 0 23 22" id="top-right-phone">
        <path d="M22.1917 6.86081C22.1917 9.33081 21.1257 12.7108 17.0957 16.6368C12.6237 20.9788 8.9577 21.7848 6.66969 21.6808C4.71969 21.6028 2.92569 20.8228 1.85969 19.6008C1.18369 18.8208 0.975695 17.8848 1.26169 16.8968C1.78169 15.1028 3.88769 13.4388 5.18769 13.0488C6.64369 12.6068 7.78769 13.5948 8.72369 14.4008C9.13969 14.7648 9.78969 15.3108 10.0237 15.2588C10.5177 15.1288 12.5717 13.4388 15.3537 10.5268C16.3677 9.46082 16.1077 9.12281 15.3797 8.42081C15.1977 8.23881 15.0157 8.08281 14.8337 7.92681C14.1317 7.30281 13.4037 6.65281 13.2737 5.37881C13.0917 3.63682 15.2497 1.53081 16.2637 0.854816C17.6157 -0.0551838 19.6697 1.01081 20.8917 2.46682C20.8917 2.51882 22.1917 4.13081 22.1917 6.86081ZM2.69169 17.7548C2.69169 18.0668 2.79569 18.3268 3.02969 18.5868C3.83569 19.4968 5.21369 20.0948 6.72169 20.1468C8.69769 20.2248 11.9217 19.4968 16.0037 15.5188C22.2177 9.48681 20.7617 4.78082 19.6697 3.48082C18.8377 2.49281 17.5897 1.84282 17.1217 2.15482C16.0557 2.88282 14.7557 4.49482 14.8337 5.22282C14.8857 5.87282 15.1977 6.15881 15.8737 6.75681C16.0557 6.91281 16.2637 7.09481 16.4717 7.30281C17.4597 8.26481 18.3697 9.64282 16.4977 11.6188C14.7817 13.4128 11.6877 16.5068 10.4137 16.7928C9.39969 17.0268 8.54169 16.2988 7.73569 15.5968C6.87769 14.8428 6.2537 14.3748 5.68169 14.5568C4.7717 14.8428 3.13369 16.1428 2.79569 17.3388C2.71769 17.4688 2.69169 17.6248 2.69169 17.7548Z" />
        <path d="M5.76156 9.65938C5.6739 10.1252 5.32326 10.4047 4.88496 10.4047C4.7973 10.4047 4.7973 10.3116 4.7973 10.3116C4.27133 10.2184 4.00835 9.65938 4.09601 9.19354C4.44665 6.95751 6.1122 5.2805 8.21605 4.81466C8.74201 4.72149 9.18032 5.09416 9.26798 5.56C9.35564 6.119 9.00499 6.58484 8.56669 6.67801C7.16413 7.05068 6.02454 8.16869 5.76156 9.65938Z" />
        <path d="M2.25514 9.47304C2.16748 9.93888 1.81684 10.3116 1.37854 10.3116C1.37854 10.3116 1.29088 10.3116 1.37854 10.2184C0.852576 10.1252 0.501936 9.65938 0.589597 9.19354C1.0279 4.81466 4.18367 1.46062 8.30371 0.994781C8.74201 0.994781 9.26797 1.36745 9.26797 1.83329C9.26797 2.29913 8.91733 2.76497 8.47903 2.85814C5.14794 3.32397 2.60578 6.02584 2.25514 9.47304Z" />
    </symbol>

    <symbol viewBox="0 0 20 18" id="mobile-menu-link">
        <path d="M0 1C0 0.447715 0.447715 0 1 0H19C19.5523 0 20 0.447715 20 1C20 1.55228 19.5523 2 19 2H1C0.447716 2 0 1.55228 0 1Z" />
        <path d="M0 9C0 8.44771 0.447715 8 1 8H19C19.5523 8 20 8.44771 20 9C20 9.55229 19.5523 10 19 10H1C0.447716 10 0 9.55229 0 9Z" />
        <path d="M1 16C0.447715 16 0 16.4477 0 17C0 17.5523 0.447715 18 1 18H11C11.5523 18 12 17.5523 12 17C12 16.4477 11.5523 16 11 16H1Z" />
    </symbol>

    <symbol viewBox="0 0 16 16" id="mobile-menu-close">
        <path d="M0.929722 13.6566C0.539198 14.0471 0.539198 14.6802 0.929722 15.0708C1.32025 15.4613 1.95341 15.4613 2.34394 15.0708L8.00069 9.41402L13.6575 15.0709C14.0481 15.4614 14.6812 15.4614 15.0717 15.0709C15.4623 14.6803 15.4623 14.0472 15.0717 13.6567L9.4149 7.99981L15.0719 2.34285C15.4624 1.95232 15.4624 1.31916 15.0719 0.928635C14.6813 0.538111 14.0482 0.538111 13.6576 0.928636L8.00069 6.58559L2.34383 0.928733C1.9533 0.538208 1.32014 0.538208 0.929612 0.928733C0.539088 1.31926 0.539088 1.95242 0.929612 2.34295L6.58647 7.99981L0.929722 13.6566Z" />
    </symbol>

    <symbol viewBox="0 0 20 20" id="contacts-icon-phone">
        <path d="M18.3332 14.1004V16.6004C18.3341 16.8325 18.2866 17.0622 18.1936 17.2749C18.1006 17.4875 17.9643 17.6784 17.7933 17.8353C17.6222 17.9922 17.4203 18.1116 17.2005 18.186C16.9806 18.2603 16.7477 18.288 16.5165 18.2671C13.9522 17.9884 11.489 17.1122 9.32486 15.7087C7.31139 14.4293 5.60431 12.7222 4.32486 10.7087C2.91651 8.53474 2.04007 6.05957 1.76653 3.48374C1.7457 3.2533 1.77309 3.02104 1.84695 2.80176C1.9208 2.58248 2.03951 2.38098 2.1955 2.21009C2.3515 2.0392 2.54137 1.90266 2.75302 1.80917C2.96468 1.71569 3.19348 1.66729 3.42486 1.66707H5.92486C6.32928 1.66309 6.72136 1.80631 7.028 2.07002C7.33464 2.33373 7.53493 2.69995 7.59153 3.10041C7.69705 3.90046 7.89274 4.68601 8.17486 5.44207C8.28698 5.74034 8.31125 6.0645 8.24478 6.37614C8.17832 6.68778 8.02392 6.97383 7.79986 7.20041L6.74153 8.25874C7.92783 10.345 9.65524 12.0724 11.7415 13.2587L12.7999 12.2004C13.0264 11.9764 13.3125 11.8219 13.6241 11.7555C13.9358 11.689 14.2599 11.7133 14.5582 11.8254C15.3143 12.1075 16.0998 12.3032 16.8999 12.4087C17.3047 12.4658 17.6744 12.6697 17.9386 12.9817C18.2029 13.2936 18.3433 13.6917 18.3332 14.1004Z" fill="none" stroke="#111111" stroke-width="2" stroke-linecap="round" stroke-linejoin="round" />
    </symbol>

    <symbol viewBox="0 0 16 18" id="contacts-icon-rubl">
        <path d="M8.95312 14.7773H5.02734V18H2.78906V14.7773H0.363281V12.9258H2.78906V11.3203H0.363281V9.48047H2.78906V0.9375H9.08203C10.9102 0.9375 12.3594 1.40234 13.4297 2.33203C14.5 3.26172 15.0352 4.51953 15.0352 6.10547C15.0352 7.76953 14.5195 9.05469 13.4883 9.96094C12.4648 10.8594 11.0078 11.3125 9.11719 11.3203H5.02734V12.9258H8.95312V14.7773ZM5.02734 9.48047H9.08203C10.293 9.48047 11.2148 9.19531 11.8477 8.625C12.4805 8.05469 12.7969 7.22266 12.7969 6.12891C12.7969 5.13672 12.4688 4.33594 11.8125 3.72656C11.1562 3.10938 10.2695 2.79688 9.15234 2.78906H5.02734V9.48047Z" />
    </symbol>

    <symbol viewBox="0 0 59 16" id="header-back-link">
        <path fill-rule="evenodd" clip-rule="evenodd" d="M2.8282 7.70711L8.12109 2.41421L6.70688 1L-0.000226974 7.70711L6.70688 14.4142L8.12109 13L2.8282 7.70711Z" />
        <rect x="3" y="7" width="56" height="2" />
    </symbol>

    <symbol viewBox="0 0 177 205" id="service-header-letter-s">
        <path d="M101.624 204.552C72.8133 204.552 48.6399 195.08 29.1039 176.136C9.76528 156.995 0.0959473 132.427 0.0959473 102.432C0.0959473 72.4374 9.76528 47.968 29.1039 29.024C48.6399 9.88268 72.8133 0.312012 101.624 0.312012C133.197 0.312012 158.16 13.336 176.512 39.384L155.792 50.928C150.069 42.4427 142.373 35.536 132.704 30.208C123.035 24.88 112.675 22.216 101.624 22.216C79.9173 22.216 61.7626 29.8133 47.16 45.008C32.7546 60.0053 25.5519 79.1467 25.5519 102.432C25.5519 125.717 32.7546 144.957 47.16 160.152C61.7626 175.149 79.9173 182.648 101.624 182.648C112.675 182.648 123.035 180.083 132.704 174.952C142.373 169.624 150.069 162.619 155.792 153.936L176.808 165.48C157.667 191.528 132.605 204.552 101.624 204.552Z" />
    </symbol>

    <symbol viewBox="0 0 150 198" id="service-header-letter-k">
        <path d="M149.864 198H119.376L44.4879 109.2L24.6559 131.696V198H0.0878906V0.567871H24.6559V102.688L111.976 0.567871H142.76L60.4719 94.3999L149.864 198Z" />
    </symbol>

    <symbol viewBox="0 0 197 235" id="service-header-letter-d">
        <path d="M0.47168 234.408V178.168C9.15435 177.576 16.061 175.504 21.1917 171.952C26.3223 168.4 30.9597 160.901 35.1037 149.456C39.445 138.011 42.997 121.435 45.7597 99.7279L57.8957 0.567871H178.664V176.096H196.72V234.408H172.152V198H25.0397V234.408H0.47168ZM70.0317 101.504C65.493 139.589 55.429 164.453 39.8397 176.096H154.096V22.4719H79.7997L70.0317 101.504Z" />
    </symbol>

    <symbol viewBox="0 0 24 24" id="doctors-header-link">
        <path fill-rule="evenodd" clip-rule="evenodd" d="M8 6H6V5H4V8H20V5H18V6H16V5H8V6ZM20 10H4V20H20V10ZM16 3H8V2H6V3H4C2.89543 3 2 3.89543 2 5V20C2 21.1046 2.89543 22 4 22H20C21.1046 22 22 21.1046 22 20V5C22 3.89543 21.1046 3 20 3H18V2H16V3ZM7 14V12H9V14H7ZM11 14H13V12H11V14ZM15 14V12H17V14H15ZM7 16V18H9V16H7ZM13 18H11V16H13V18Z" />
    </symbol>

    <symbol viewBox="0 0 24 24" id="article-arrow">
        <path fill-rule="evenodd" clip-rule="evenodd" d="M8.29289 18.7071C7.90237 18.3166 7.90237 17.6834 8.29289 17.2929L13.5858 12L8.29289 6.70711C7.90237 6.31658 7.90237 5.68342 8.29289 5.29289C8.68342 4.90237 9.31658 4.90237 9.70711 5.29289L15.7071 11.2929C16.0976 11.6834 16.0976 12.3166 15.7071 12.7071L9.70711 18.7071C9.31658 19.0976 8.68342 19.0976 8.29289 18.7071Z" />
    </symbol>

    <symbol viewBox="0 0 21 21" id="doctors-card-instagram">
        <path fill-rule="evenodd" clip-rule="evenodd" d="M0.822754 2.24707C0.822754 1.1425 1.71818 0.24707 2.82275 0.24707H18.8228C19.9273 0.24707 20.8228 1.1425 20.8228 2.24707V6.24707H15.295C14.1963 5.01957 12.5998 4.24707 10.8228 4.24707C9.04575 4.24707 7.44918 5.01957 6.35054 6.24707H0.822754V2.24707ZM16.4813 8.24707H20.8228V18.2471C20.8228 19.3516 19.9273 20.2471 18.8228 20.2471H2.82275C1.71818 20.2471 0.822754 19.3516 0.822754 18.2471V8.24707H5.16417C4.94306 8.87263 4.82275 9.5458 4.82275 10.2471C4.82275 13.5608 7.50905 16.2471 10.8228 16.2471C14.1365 16.2471 16.8228 13.5608 16.8228 10.2471C16.8228 9.5458 16.7024 8.87263 16.4813 8.24707ZM10.8228 14.2471C13.0319 14.2471 14.8228 12.4562 14.8228 10.2471C14.8228 8.03793 13.0319 6.24707 10.8228 6.24707C8.61362 6.24707 6.82275 8.03793 6.82275 10.2471C6.82275 12.4562 8.61362 14.2471 10.8228 14.2471ZM17.8228 5.24707C18.9273 5.24707 19.8228 4.35164 19.8228 3.24707C19.8228 2.1425 18.9273 1.24707 17.8228 1.24707C16.7182 1.24707 15.8228 2.1425 15.8228 3.24707C15.8228 4.35164 16.7182 5.24707 17.8228 5.24707Z" />
    </symbol>

    <symbol viewBox="0 0 14 14" id="window-close">
        <path d="M11.9504 13.3641C12.3409 13.7546 12.974 13.7546 13.3646 13.3641C13.7551 12.9735 13.7551 12.3404 13.3646 11.9499L8.41482 7.00011L13.3646 2.05037C13.7551 1.65984 13.7551 1.02668 13.3646 0.636154C12.974 0.245631 12.3409 0.245631 11.9504 0.636155L7.00061 5.5859L2.05086 0.636156C1.66033 0.245631 1.02717 0.245631 0.636643 0.636156C0.246119 1.02668 0.246119 1.65985 0.636644 2.05037L5.58639 7.00012L0.636644 11.9499C0.246121 12.3404 0.246121 12.9736 0.636645 13.3641C1.02717 13.7546 1.66033 13.7546 2.05086 13.3641L7.0006 8.41433L11.9504 13.3641Z" />
    </symbol>

    <symbol viewBox="0 0 30 14" id="window-record-notice">
        <path fill-rule="evenodd" clip-rule="evenodd" d="M26.27 8H0V6H26.27L22 1.47597L23.3931 0L30 7L23.3931 14L22 12.524L26.27 8Z" />
    </symbol>

    <symbol viewBox="0 0 32 32" id="form-select">
        <rect x="0.5" y="0.5" width="31" height="31" rx="15.5" stroke="#18C6CD" />
        <path fill-rule="evenodd" clip-rule="evenodd" d="M9.29289 13.2929C9.68342 12.9024 10.3166 12.9024 10.7071 13.2929L16 18.5858L21.2929 13.2929C21.6834 12.9024 22.3166 12.9024 22.7071 13.2929C23.0976 13.6834 23.0976 14.3166 22.7071 14.7071L16.7071 20.7071C16.3166 21.0976 15.6834 21.0976 15.2929 20.7071L9.29289 14.7071C8.90237 14.3166 8.90237 13.6834 9.29289 13.2929Z" fill="#616161" />
    </symbol>

    <symbol viewBox="0 0 40 40" id="schedule-item-header">
        <rect width="40" height="40" rx="20" fill="white" />
        <rect x="0.5" y="0.5" width="39" height="39" rx="19.5" stroke="#BFC3D3" stroke-opacity="0.64" />
        <path fill-rule="evenodd" clip-rule="evenodd" d="M13.2929 17.2929C13.6834 16.9024 14.3166 16.9024 14.7071 17.2929L20 22.5858L25.2929 17.2929C25.6834 16.9024 26.3166 16.9024 26.7071 17.2929C27.0976 17.6834 27.0976 18.3166 26.7071 18.7071L20.7071 24.7071C20.3166 25.0976 19.6834 25.0976 19.2929 24.7071L13.2929 18.7071C12.9024 18.3166 12.9024 17.6834 13.2929 17.2929Z" fill="#616161" />
    </symbol>

    <symbol viewBox="0 0 59 16" id="schedule-item-close">
        <path fill-rule="evenodd" clip-rule="evenodd" d="M2.82844 7.70711L8.12134 2.41421L6.70712 1L1.71661e-05 7.70711L6.70712 14.4142L8.12134 13L2.82844 7.70711Z" fill="#222426" />
        <rect x="3" y="7" width="56" height="2" fill="black" />
    </symbol>

    <symbol viewBox="0 0 24 24" id="price-search">
        <path fill-rule="evenodd" clip-rule="evenodd" d="M11 4C7.13401 4 4 7.13401 4 11C4 14.866 7.13401 18 11 18C14.866 18 18 14.866 18 11C18 7.13401 14.866 4 11 4ZM2 11C2 6.02944 6.02944 2 11 2C15.9706 2 20 6.02944 20 11C20 15.9706 15.9706 20 11 20C6.02944 20 2 15.9706 2 11Z" />
        <path fill-rule="evenodd" clip-rule="evenodd" d="M15.9428 15.9433C16.3333 15.5528 16.9665 15.5528 17.357 15.9433L21.707 20.2933C22.0975 20.6838 22.0975 21.317 21.707 21.7075C21.3165 22.098 20.6833 22.098 20.2928 21.7075L15.9428 17.3575C15.5523 16.967 15.5523 16.3338 15.9428 15.9433Z" />
    </symbol>

</svg>