<svg version="1.1" xmlns="http://www.w3.org/2000/svg" xmlns:xlink="http://www.w3.org/1999/xlink">

    <symbol viewBox="0 0 48 48" id="footer-social-youtube">
        <path fill-rule="evenodd" clip-rule="evenodd" d="M37.909 32.4262C38.8486 30.8161 39.25 28.2197 39.25 23.9962C39.25 19.7894 38.8524 17.2082 37.9028 15.5548C36.9512 13.8379 35.8225 13.2929 33.5827 13.1621C32.0535 13.0585 28.2531 13 24.1287 13C19.9953 13 16.1932 13.0584 14.6526 13.1629C12.4253 13.2932 11.2964 13.8394 10.3364 15.5611C9.40065 17.2087 9 19.8026 9 24.0115C9 28.1966 9.40259 30.8035 10.3446 32.4458C11.2921 34.1453 12.403 34.6849 14.6493 34.8426C16.2638 34.9371 20.2811 35 24.1287 35C27.9676 35 31.9829 34.9371 33.5827 34.8437C35.8496 34.6849 36.9603 34.1444 37.909 32.4262ZM33.4096 15.9066C34.8106 15.9885 35.0705 16.1144 35.5146 16.9183C36.1611 18.038 36.5 20.2294 36.5 24.0115C36.5 27.7651 36.1593 29.9685 35.5176 31.0689C35.0719 31.8752 34.8139 32.0007 33.4064 32.0994C31.8923 32.1877 27.9159 32.25 24.1287 32.25C20.3329 32.25 16.3545 32.1877 14.8259 32.0983C13.4358 32.0006 13.174 31.8735 12.7383 31.092C12.0922 29.9655 11.75 27.7497 11.75 23.9962C11.75 20.2449 12.0904 18.0413 12.733 16.9097C13.1755 16.1161 13.4391 15.9886 14.826 15.9074C16.2945 15.8079 20.0608 15.75 24.1287 15.75C28.1878 15.75 31.9524 15.8079 33.4096 15.9066ZM21.375 19.875L28.25 24L21.375 28.125V19.875Z" />
    </symbol>

    <symbol viewBox="0 0 48 48" id="footer-social-vk">
        <path fill-rule="evenodd" clip-rule="evenodd" d="M22.6563 32.9246H24.5691C24.5691 32.9246 25.1469 32.8621 25.4419 32.5486C25.7134 32.2607 25.7047 31.7201 25.7047 31.7201C25.7047 31.7201 25.6673 29.1895 26.8585 28.8168C28.0328 28.4497 29.5406 31.2627 31.1389 32.3442C32.3474 33.1628 33.2658 32.9833 33.2658 32.9833L37.5392 32.9246C37.5392 32.9246 39.7747 32.7889 38.7148 31.0558C38.6279 30.914 38.0974 29.7738 35.5374 27.4307C32.8579 24.9785 33.2167 25.3751 36.4445 21.1332C38.4102 18.5499 39.1961 16.9728 38.9506 16.2973C38.7165 15.6539 37.2707 15.8239 37.2707 15.8239L32.4591 15.8535C32.4591 15.8535 32.1024 15.8055 31.8379 15.9614C31.5794 16.1144 31.413 16.4707 31.413 16.4707C31.413 16.4707 30.6514 18.4698 29.6358 20.1699C27.4932 23.7573 26.6365 23.9466 26.2864 23.7239C25.4718 23.2047 25.6751 21.6383 25.6751 20.5254C25.6751 17.049 26.2099 15.5995 24.6338 15.2243C24.1108 15.0996 23.7259 15.0174 22.3883 15.0041C20.6715 14.9865 19.2183 15.0092 18.3955 15.4067C17.8482 15.671 17.4259 16.26 17.6831 16.2938C18.0011 16.3358 18.7213 16.4853 19.1032 16.998C19.5963 17.6594 19.5789 19.1449 19.5789 19.1449C19.5789 19.1449 19.8621 23.2373 18.9173 23.7457C18.2687 24.0944 17.379 23.3825 15.4688 20.1279C14.4901 18.4608 13.7511 16.6181 13.7511 16.6181C13.7511 16.6181 13.6086 16.2737 13.3545 16.0895C13.0461 15.8663 12.6151 15.7952 12.6151 15.7952L8.04282 15.8248C8.04282 15.8248 7.35643 15.8436 7.10446 16.1379C6.8803 16.3996 7.08665 16.9411 7.08665 16.9411C7.08665 16.9411 10.6663 25.1986 14.7194 29.36C18.4359 33.1752 22.6563 32.9246 22.6563 32.9246Z" />
    </symbol>

    <symbol viewBox="0 0 48 48" id="footer-social-instagram">
        <path fill-rule="evenodd" clip-rule="evenodd" d="M14 16C14 14.8954 14.8954 14 16 14H32C33.1046 14 34 14.8954 34 16V20.25H29.0005C27.8602 18.7319 26.0448 17.75 24 17.75C21.9552 17.75 20.1398 18.7319 18.9995 20.25H14V16ZM30.125 22.75H34V32C34 33.1046 33.1046 34 32 34H16C14.8954 34 14 33.1046 14 32V22.75H17.875C17.793 23.1539 17.75 23.5719 17.75 24C17.75 27.4518 20.5482 30.25 24 30.25C27.4518 30.25 30.25 27.4518 30.25 24C30.25 23.5719 30.207 23.1539 30.125 22.75ZM24 20.25C21.9289 20.25 20.25 21.9289 20.25 24C20.25 26.0711 21.9289 27.75 24 27.75C26.0711 27.75 27.75 26.0711 27.75 24C27.75 21.9289 26.0711 20.25 24 20.25ZM30.875 19C31.9105 19 32.75 18.1605 32.75 17.125C32.75 16.0895 31.9105 15.25 30.875 15.25C29.8395 15.25 29 16.0895 29 17.125C29 18.1605 29.8395 19 30.875 19Z" />
    </symbol>

    <symbol viewBox="0 0 48 48" id="footer-social-fb">
        <path d="M21.968 25.2497V34H25.621V25.2497H28.3447L28.863 21.6302H25.621V19.2825C25.621 18.292 26.0731 17.326 27.5251 17.326H29V14.2446C29 14.2446 27.6621 14 26.3836 14C23.7123 14 21.968 15.7339 21.968 18.8716V21.6302H19V25.2497H21.968Z" />
    </symbol>

</svg>